<svg width="460" height="243" viewBox="0 0 460 243" fill="none" xmlns="http://www.w3.org/2000/svg">
    <g clip-path="url(#clip0_545_58555)">
        <mask id="path-1-inside-1_545_58555" fill="#ffffff">
            <path fill-rule="evenodd" clip-rule="evenodd"
                  d="M72.9873 64.0551C73.7626 64.9197 74.4991 65.9595 75.1897 67.2121L91.4379 52.6864L72.9873 64.0551ZM50.6868 64.3567C50.0408 64.3567 49.6927 65.2324 49.569 65.6337C49.317 66.4406 49.2002 67.7376 49.6297 68.9481C50.097 70.2694 50.5551 71.6018 51.004 72.9519L54.0562 71.0697L55.4626 66.3298C55.6367 65.7467 55.9368 65.3477 56.2815 65.2435C56.6228 65.1437 56.9744 65.3455 57.2298 65.8022C57.6788 66.5958 58.1048 67.4383 58.5079 68.3273L64.6593 64.5363C62.828 64.3766 60.8947 64.4919 58.9294 64.6183C56.2506 64.7868 53.4778 64.9663 50.8574 64.3766C50.799 64.3633 50.7418 64.3567 50.6868 64.3567ZM97.4692 64.8267C91.7004 67.5269 86.0038 70.797 80.4033 74.6124L93.3989 72.9697L97.4692 64.8267ZM74.6392 72.5883L71.0556 75.7918L72.517 75.6078C73.3611 74.9538 74.2109 74.3109 75.0607 73.6835C75.0068 73.5327 74.9519 73.3842 74.8969 73.2378C74.8122 73.0139 74.7274 72.7989 74.6392 72.5883ZM55.5982 74.772L55.0416 76.6476C56.2831 76.6188 57.5269 76.6099 58.7649 76.6144C58.4442 75.5258 58.0915 74.4727 57.7112 73.4707L55.5982 74.772ZM61.3575 76.6609C62.087 76.6786 62.82 76.7074 63.5507 76.7407L68.5201 76.1111C68.4881 75.7696 68.456 75.4327 68.4251 75.0935C68.3312 74.098 68.5969 73.107 69.071 72.6836L72.8928 69.2672C71.9205 67.835 70.8428 66.8152 69.6837 66.0925L59.9946 72.0628C60.502 73.5238 60.9566 75.0624 61.3575 76.6609ZM81.601 78.9023C84.2524 79.4189 86.8934 80.0175 89.5322 80.707L91.029 77.7118L81.601 78.9023ZM92.3378 81.4696C93.2197 81.7224 94.1027 81.984 94.9823 82.2544L104.232 76.0424L94.4314 77.2817L92.3378 81.4696ZM62.3473 81.3366C62.4905 82.1569 62.6199 82.9882 62.7367 83.8263C63.6861 82.9616 64.639 82.117 65.5965 81.2856C64.9322 81.2435 64.2668 81.208 63.6025 81.177L62.3473 81.3366ZM79.1763 82.9084C79.2485 84.1455 79.2748 85.3914 79.2599 86.6418L86.8211 86.1341L87.5495 84.6754C84.7665 83.9881 81.9731 83.4006 79.1763 82.9084ZM71.3888 81.791C71.5606 83.5535 71.737 85.3382 71.9214 87.1384L76.9744 86.797C77.0007 85.3604 76.9595 83.9282 76.8495 82.5204C75.0308 82.2366 73.2098 81.9928 71.3888 81.791ZM65.614 86.1363C65.7904 86.5221 65.8946 87.0187 65.9026 87.5441L69.6031 87.2936C69.4599 85.8792 69.3202 84.4714 69.1839 83.0791C67.9882 84.0723 66.7983 85.0899 65.614 86.1363ZM56.4983 86.6573C56.9804 86.6573 57.4076 87.247 57.5714 88.1072L58.2334 88.0607C59.0328 87.2847 59.8345 86.5176 60.6385 85.7616C60.4621 84.3605 60.2422 82.9793 59.9823 81.6358L53.9294 82.3985C54.3749 83.9504 54.809 85.5156 55.2305 87.0941C55.6073 86.8834 55.9955 86.7371 56.3906 86.6662C56.4273 86.6595 56.4616 86.6573 56.4983 86.6573ZM38.9861 89.9717C42.1105 89.9717 45.2337 90.0715 48.3557 90.2754L50.5673 82.8241L40.3238 84.1189C39.789 84.1543 39.2965 83.5136 39.1488 82.5248C35.7014 83.068 32.2644 83.7641 28.8446 84.6088L37.6129 89.9784C38.071 89.9739 38.528 89.9717 38.9861 89.9717ZM50.9392 90.4662C51.111 90.4795 51.2851 90.495 51.4569 90.5105C51.4546 89.8964 51.4603 89.2845 51.4729 88.6682L50.9392 90.4662ZM89.3525 90.7277L97.6421 91.2908L101.131 89.6037L89.8954 90.3619L89.3525 90.7277ZM105.938 91.854L109.264 92.0801C108.595 91.7875 107.924 91.4993 107.254 91.2177L105.938 91.854ZM73.4533 94.0843C74.3443 94.2993 75.2377 94.5188 76.1264 94.7494C76.1585 94.5898 76.1894 94.4324 76.2192 94.2727L73.4533 94.0843ZM45.0522 94.5342L46.777 95.5895L47.0611 94.6318C46.3899 94.5941 45.7234 94.5631 45.0522 94.5342ZM81.2547 96.166C81.4139 96.2126 81.5777 96.2614 81.7381 96.3101L82.0885 95.6051L81.2547 96.166ZM112.296 96.7202L111.776 97.0328L115.535 96.9419L112.296 96.7202ZM49.0124 96.9597L49.4327 97.2146C49.7534 96.8599 50.0741 96.5074 50.3948 96.1549C50.4875 95.7181 50.5872 95.2947 50.6937 94.8823C50.3455 94.8557 50.0019 94.8269 49.6526 94.8003L49.0124 96.9597ZM84.4986 97.1614C84.6967 97.2235 84.8983 97.2878 85.0964 97.3521L89.5905 95.1795L85.6221 94.9112L84.4986 97.1614ZM98.4506 95.7825C97.5447 96.3168 96.6399 96.8621 95.7374 97.4186L104.727 97.2013C105.125 96.8932 105.523 96.5872 105.924 96.2902L98.4506 95.7825ZM64.6047 96.6936L64.3848 98.1746L70.7801 98.0194C70.7766 97.9906 70.7732 97.9595 70.7698 97.9285C68.7163 97.474 66.6639 97.0617 64.6047 96.6936ZM57.9321 98.1435C57.9459 98.2033 57.9608 98.2676 57.9745 98.3275L61.0221 98.2543C61.0691 97.5427 61.1034 96.8288 61.1263 96.1127C60.0452 95.9464 58.9595 95.7913 57.8783 95.6494L57.9321 98.1435ZM54.1344 97.5627C54.1653 97.8487 54.1974 98.1325 54.2317 98.4185L54.5581 98.4096C54.7322 97.7312 54.88 97.0306 55.0048 96.3101C55.0037 96.3079 55.0037 96.3079 55.0037 96.3057C54.7345 96.585 54.4665 96.8644 54.1997 97.1459C54.1779 97.2856 54.1573 97.4253 54.1344 97.5627ZM97.2886 101.815C97.7662 102.012 98.2461 102.212 98.7225 102.411C98.9493 102.194 99.1772 101.977 99.4051 101.766L97.2886 101.815ZM60.2071 103.815L61.0879 104.353L61.2471 103.278C61.1291 103.118 61.0272 102.919 60.947 102.691L60.3847 102.704C60.3766 103.099 60.3148 103.482 60.2071 103.815ZM66.9739 105.754L67.4801 105.861L71.5229 103.908C71.4737 103.537 71.4256 103.169 71.3764 102.799L66.9739 105.754ZM46.0969 106.783C46.6821 106.819 47.2685 106.852 47.8526 106.883C48.1011 106.708 48.3497 106.533 48.5993 106.36L46.3614 105.892L46.0969 106.783ZM37.2645 94.4146C26.0155 94.5499 14.7687 96.0086 3.59303 98.8109C2.62297 99.0526 2.28511 100.627 2.28969 101.901C2.29084 102.351 2.36299 104.613 3.58845 104.879L14.5878 107.273C14.5889 107.207 14.5924 107.14 14.597 107.071C14.6714 105.945 15.2005 105.129 15.7617 105.14C24.5862 105.595 33.1495 106.056 41.5043 106.526C41.8857 106.052 42.2682 105.579 42.6508 105.114L34.1035 103.32C33.4999 103.194 33.0533 102.181 33.0819 101.01C33.1117 99.8396 33.6064 98.9151 34.2123 98.8996L44.1935 98.6579L37.2645 94.4146ZM74.3989 107.313L75.0299 107.444C75.6633 106.932 76.3001 106.42 76.9334 105.919L76.9712 105.848L74.5581 107.012C74.5054 107.111 74.4516 107.213 74.3989 107.313ZM82.0788 108.923C85.4161 109.129 88.7295 109.333 92.0245 109.539C93.1778 108.182 94.3437 106.881 95.5267 105.63C92.9121 104.582 90.2905 103.606 87.6621 102.704C85.0313 104.528 82.4144 106.444 79.8157 108.448L82.0788 108.923ZM96.3498 109.809C99.7204 110.018 103.073 110.228 106.409 110.439C103.956 109.255 101.488 108.133 99.0194 107.078C98.1227 107.956 97.2317 108.869 96.3498 109.809ZM42.1477 110.998C41.843 111.381 41.5384 111.765 41.2337 112.148C41.5166 111.9 41.7983 111.656 42.0824 111.41L42.2038 111C42.1843 111 42.166 111 42.1477 110.998ZM28.1782 110.228L37.0977 112.17C37.4516 111.703 37.8055 111.237 38.1617 110.774C34.869 110.592 31.5408 110.41 28.1782 110.228ZM116.465 111.071C131.682 112.029 147.205 112.995 163.436 113.951L189.365 107.116C189.639 106.69 189.578 106.027 189.55 105.814C189.506 105.484 189.381 104.879 189.022 104.974C171.548 106.564 154.039 105.187 136.706 100.866L105.188 101.624C104.236 102.378 103.29 103.167 102.352 103.99C107.085 106.111 111.794 108.473 116.465 111.071ZM62.7702 112.705L62.4599 114.305C63.6567 113.838 64.8352 113.208 65.9851 112.381C65.2315 112.337 64.4779 112.292 63.722 112.246L62.7702 112.705ZM46.2725 114.168C46.5691 114.23 46.868 114.294 47.1704 114.359L48.2916 113.607C48.7566 112.864 49.2273 112.135 49.7038 111.426C49.4804 111.412 49.2537 111.399 49.0303 111.39C48.1599 112.578 47.2322 113.514 46.2725 114.168ZM112.193 115.239L117.722 116.398C117.184 116.092 116.643 115.786 116.103 115.485C114.799 115.403 113.494 115.321 112.193 115.239ZM76.2608 113.643L84.8516 118.903C85.8709 117.429 86.9051 116.001 87.953 114.616L81.9174 113.348C80.1422 113.241 78.3589 113.13 76.5712 113.022L76.2608 113.643ZM163.555 118.396L161.376 118.97C163.122 118.848 164.905 118.715 166.705 118.58C165.653 118.515 164.602 118.456 163.555 118.396ZM129.215 118.808L140.803 121.24C140.927 120.424 141.29 119.79 141.748 119.668L149.716 117.569C141.293 117.057 133.035 116.547 124.886 116.035C126.334 116.939 127.774 117.862 129.215 118.808ZM64.4951 121.491C65.9015 121.792 67.3137 122.083 68.7201 122.355L72.0414 115.711L71.3909 115.312C69.0785 117.301 66.7788 119.358 64.4951 121.491ZM71.6365 122.901C72.6798 123.089 73.7243 123.269 74.7688 123.439C74.4344 121.821 74.116 120.185 73.8148 118.542L71.6365 122.901ZM77.335 123.847C78.6349 124.045 79.9382 124.231 81.2393 124.404C81.7042 123.659 82.1715 122.927 82.6434 122.202L76.2 118.254C76.5562 120.138 76.933 122.005 77.335 123.847ZM84.6179 124.825C85.5593 124.936 86.495 125.04 87.4364 125.135L85.2879 123.821C85.0657 124.151 84.8412 124.49 84.6179 124.825ZM109.998 123.311C110.527 123.311 111.001 124.023 111.117 125.062C111.161 125.461 111.147 125.858 111.086 126.22C117.868 126.144 124.648 125.732 131.433 124.989C130.527 124.371 129.626 123.765 128.716 123.165L91.5209 115.363C90.1774 117.023 88.8546 118.757 87.5582 120.56L96.2028 125.854C98.4751 125.991 100.745 126.089 103.02 126.153L109.756 123.36C109.839 123.324 109.919 123.311 109.998 123.311ZM64.0854 125.865C64.6511 126.672 65.2318 127.441 65.8205 128.162L66.6955 126.41C65.825 126.235 64.9546 126.051 64.0854 125.865ZM78.4028 128.454C78.4429 128.614 78.483 128.776 78.5231 128.937C78.6044 128.793 78.6892 128.649 78.7716 128.507C78.6479 128.487 78.5265 128.472 78.4028 128.454ZM63.3017 130.206C63.3956 131.019 63.4872 131.835 63.5743 132.651L64.2042 131.394C63.8995 131.008 63.5995 130.611 63.3017 130.206ZM99.4064 134.014C99.4385 134.032 99.4683 134.054 99.4992 134.074C99.6149 134.032 99.7306 133.994 99.8462 133.952L99.4064 134.014ZM67.8677 130.438C69.1447 131.722 70.4549 132.793 71.7719 133.622C72.8474 134.298 73.932 134.864 75.0246 135.329C75.5961 134.229 76.1744 133.143 76.7608 132.072C76.4184 130.747 76.0908 129.407 75.777 128.053C73.7166 127.727 71.6551 127.368 69.5959 126.98L67.8677 130.438ZM77.7851 136.302C77.8332 136.318 77.8813 136.331 77.9305 136.342C77.9111 136.276 77.8916 136.209 77.8721 136.143C77.8423 136.196 77.8148 136.247 77.7851 136.302ZM80.7654 136.928C85.2103 137.564 89.7136 136.93 94.1309 135.75C92.027 134.841 89.8979 134.236 87.762 133.955C87.1573 133.875 86.69 132.897 86.6957 131.72C86.7015 130.693 87.0679 129.827 87.5661 129.592C85.7108 129.401 83.8543 129.186 82 128.949C81.188 130.277 80.3898 131.631 79.6018 133.017C79.974 134.34 80.36 135.646 80.7654 136.928ZM103.516 137.118C104.365 137.848 105.204 138.626 106.034 139.451L125.631 130.352L125.385 130.376L106.748 132.986C106.842 133.332 106.889 133.726 106.876 134.136C106.848 135.147 106.468 135.992 105.955 136.187C105.15 136.498 104.337 136.808 103.516 137.118ZM47.1371 121.504C44.0929 127.091 41.3751 133.458 39.0502 140.484C38.7203 141.484 39.088 142.286 39.1659 142.437C39.3319 142.765 39.6068 143.066 39.9538 142.652C45.4249 136.032 50.999 129.855 56.6693 124.131C53.49 123.329 50.3095 122.453 47.1371 121.504ZM82.335 141.545C83.1756 143.838 84.0816 146.039 85.0573 148.134C85.1925 148.423 85.3288 148.711 85.4662 148.995L102.495 141.091C101.448 140.198 100.386 139.382 99.3127 138.646C93.805 140.535 88.0614 141.989 82.335 141.545ZM75.7814 140.156C73.1232 145.423 70.6333 151.032 68.3404 156.945L82.9326 150.174C81.6498 147.33 80.4885 144.31 79.4348 141.162C78.2128 140.929 76.9954 140.597 75.7814 140.156ZM64.1056 137.972C64.6943 144.421 65.0986 150.928 65.3105 157.446C67.7133 150.952 70.3417 144.796 73.1648 139.025C72.4639 138.672 71.7642 138.278 71.0667 137.839C69.4243 136.806 67.7957 135.424 66.2175 133.744L64.1056 137.972ZM62.1274 141.931L54.4631 157.268C53.7977 158.601 53.9168 160.272 54.2192 161.301C54.3543 161.756 54.8651 163.208 55.85 162.744L63.0757 159.39C62.9153 153.551 62.5981 147.722 62.1274 141.931ZM87.3758 152.67C93.0931 162.913 100.746 170.136 111.153 175.186C113.776 176.45 115.645 173.554 116.514 170.406C117.54 166.688 117.593 161.21 115.396 157.359C112.423 152.145 109.169 147.713 105.734 144.148L87.3758 152.67ZM112.376 179.919C111.792 179.919 111.195 179.778 110.596 179.485C99.1328 173.925 90.8501 165.746 84.7297 153.896L66.2894 162.458C65.9458 163.425 65.6057 164.4 65.2712 165.383C64.9952 166.192 64.4741 166.562 63.9988 166.294C63.5167 166.028 63.1811 165.185 63.1696 164.216C63.1685 164.115 63.1673 164.01 63.1662 163.908L56.3838 167.056C54.7231 167.821 53.0934 166.429 52.2287 163.5C51.3262 160.439 51.5621 156.694 52.8162 154.185L61.6407 136.526C61.2822 132.89 60.8653 129.277 60.3889 125.692C60.3568 125.632 60.3213 125.572 60.2892 125.517C53.7851 131.891 47.4105 138.856 41.1698 146.41C39.9902 147.842 38.5299 147.498 37.5381 145.556C36.5062 143.539 36.3355 140.47 37.1235 138.094C39.0556 132.247 41.2511 126.84 43.6723 121.93L40.8079 123.315C40.2101 123.595 39.6065 122.934 39.4336 121.797C39.2778 120.788 39.5114 119.728 39.9695 119.232C39.7038 119.143 39.4439 119.056 39.177 118.966C31.8769 126.027 25.0213 134.981 18.8344 145.596C18.3626 146.407 17.6422 146.328 17.2218 145.416C16.8004 144.505 16.8405 143.109 17.3077 142.29C22.4936 133.238 27.9165 124.792 33.5468 116.977C31.3043 116.154 29.0618 115.294 26.8228 114.396L3.33524 109.286C1.3871 108.863 0.0173406 105.841 0.000161245 101.939C-0.0170181 97.9994 1.34015 94.9023 3.30088 94.4101C12.3063 92.1555 21.3598 90.7632 30.4213 90.2267L23.3239 85.8792C22.8154 85.5688 22.4856 84.6199 22.5268 83.5934C22.5692 82.5648 22.9712 81.7267 23.498 81.5715C30.1739 79.6228 36.9219 78.2505 43.7009 77.4524L48.7402 74.3464C48.4115 73.3753 48.0782 72.4132 47.7392 71.4554C46.8665 68.9924 46.8149 65.8819 47.6063 63.3435C48.3531 60.9469 49.6999 59.6433 51.1201 59.9714C53.571 60.5235 56.2578 60.3527 58.853 60.1865C62.55 59.9448 66.3134 59.712 69.6668 61.4502L108.26 37.6663C108.833 37.3094 109.455 37.8836 109.675 38.9743C109.894 40.0673 109.636 41.2999 109.088 41.7921L76.7699 70.6839C76.9417 71.1406 77.1066 71.6084 77.259 72.085C84.9209 66.6357 92.7661 62.1928 100.737 58.8186C101.237 58.608 101.738 59.0514 101.981 59.9027C102.227 60.7585 102.156 61.8204 101.805 62.5254L96.801 72.5373L112.536 70.5509C113.113 70.5309 113.622 71.2337 113.734 72.3223C113.847 73.4108 113.528 74.4927 112.987 74.8563L99.6802 83.7908C100.823 84.1898 101.964 84.6066 103.104 85.0345L111.077 84.498C113.408 83.4028 115.749 82.3719 118.099 81.4097C118.715 81.1636 119.31 81.9019 119.451 83.0813C119.591 84.2585 119.219 85.438 118.613 85.7306L116.668 86.6684C116.621 87.471 116.349 88.1804 115.944 88.4841L114.858 89.2978C118.421 90.7211 121.997 92.018 125.583 93.1886L163.804 95.7847C164.426 95.8246 164.916 96.82 164.909 98.0238C164.902 99.2277 164.399 100.201 163.777 100.216L158.841 100.334C168.85 101.385 178.888 101.46 188.914 100.545C190.308 100.463 191.417 102.094 191.766 104.704C192.121 107.36 191.5 110.047 190.259 111.237C190.148 111.343 190.027 111.414 189.905 111.448L177.357 114.755C186.823 115.29 196.557 115.822 206.623 116.336H206.627C207.258 116.369 207.758 117.387 207.742 118.609C207.726 119.815 207.216 120.77 206.596 120.77H206.568C199.589 120.435 186.736 121.446 174.308 122.424C166.555 123.036 158.635 123.659 152.058 123.96C152.323 124.384 152.488 125.031 152.478 125.743C152.461 126.9 151.987 127.836 151.389 127.893L137.992 129.173C137.973 129.184 137.956 129.192 137.937 129.201L108.99 142.636C111.791 145.902 114.456 149.728 116.933 154.074C120.046 159.53 119.979 167.258 118.534 172.497C117.229 177.221 114.923 179.919 112.376 179.919Z"/>
        </mask>
        <path fill-rule="evenodd" clip-rule="evenodd"
              d="M72.9873 64.0551C73.7626 64.9197 74.4991 65.9595 75.1897 67.2121L91.4379 52.6864L72.9873 64.0551ZM50.6868 64.3567C50.0408 64.3567 49.6927 65.2324 49.569 65.6337C49.317 66.4406 49.2002 67.7376 49.6297 68.9481C50.097 70.2694 50.5551 71.6018 51.004 72.9519L54.0562 71.0697L55.4626 66.3298C55.6367 65.7467 55.9368 65.3477 56.2815 65.2435C56.6228 65.1437 56.9744 65.3455 57.2298 65.8022C57.6788 66.5958 58.1048 67.4383 58.5079 68.3273L64.6593 64.5363C62.828 64.3766 60.8947 64.4919 58.9294 64.6183C56.2506 64.7868 53.4778 64.9663 50.8574 64.3766C50.799 64.3633 50.7418 64.3567 50.6868 64.3567ZM97.4692 64.8267C91.7004 67.5269 86.0038 70.797 80.4033 74.6124L93.3989 72.9697L97.4692 64.8267ZM74.6392 72.5883L71.0556 75.7918L72.517 75.6078C73.3611 74.9538 74.2109 74.3109 75.0607 73.6835C75.0068 73.5327 74.9519 73.3842 74.8969 73.2378C74.8122 73.0139 74.7274 72.7989 74.6392 72.5883ZM55.5982 74.772L55.0416 76.6476C56.2831 76.6188 57.5269 76.6099 58.7649 76.6144C58.4442 75.5258 58.0915 74.4727 57.7112 73.4707L55.5982 74.772ZM61.3575 76.6609C62.087 76.6786 62.82 76.7074 63.5507 76.7407L68.5201 76.1111C68.4881 75.7696 68.456 75.4327 68.4251 75.0935C68.3312 74.098 68.5969 73.107 69.071 72.6836L72.8928 69.2672C71.9205 67.835 70.8428 66.8152 69.6837 66.0925L59.9946 72.0628C60.502 73.5238 60.9566 75.0624 61.3575 76.6609ZM81.601 78.9023C84.2524 79.4189 86.8934 80.0175 89.5322 80.707L91.029 77.7118L81.601 78.9023ZM92.3378 81.4696C93.2197 81.7224 94.1027 81.984 94.9823 82.2544L104.232 76.0424L94.4314 77.2817L92.3378 81.4696ZM62.3473 81.3366C62.4905 82.1569 62.6199 82.9882 62.7367 83.8263C63.6861 82.9616 64.639 82.117 65.5965 81.2856C64.9322 81.2435 64.2668 81.208 63.6025 81.177L62.3473 81.3366ZM79.1763 82.9084C79.2485 84.1455 79.2748 85.3914 79.2599 86.6418L86.8211 86.1341L87.5495 84.6754C84.7665 83.9881 81.9731 83.4006 79.1763 82.9084ZM71.3888 81.791C71.5606 83.5535 71.737 85.3382 71.9214 87.1384L76.9744 86.797C77.0007 85.3604 76.9595 83.9282 76.8495 82.5204C75.0308 82.2366 73.2098 81.9928 71.3888 81.791ZM65.614 86.1363C65.7904 86.5221 65.8946 87.0187 65.9026 87.5441L69.6031 87.2936C69.4599 85.8792 69.3202 84.4714 69.1839 83.0791C67.9882 84.0723 66.7983 85.0899 65.614 86.1363ZM56.4983 86.6573C56.9804 86.6573 57.4076 87.247 57.5714 88.1072L58.2334 88.0607C59.0328 87.2847 59.8345 86.5176 60.6385 85.7616C60.4621 84.3605 60.2422 82.9793 59.9823 81.6358L53.9294 82.3985C54.3749 83.9504 54.809 85.5156 55.2305 87.0941C55.6073 86.8834 55.9955 86.7371 56.3906 86.6662C56.4273 86.6595 56.4616 86.6573 56.4983 86.6573ZM38.9861 89.9717C42.1105 89.9717 45.2337 90.0715 48.3557 90.2754L50.5673 82.8241L40.3238 84.1189C39.789 84.1543 39.2965 83.5136 39.1488 82.5248C35.7014 83.068 32.2644 83.7641 28.8446 84.6088L37.6129 89.9784C38.071 89.9739 38.528 89.9717 38.9861 89.9717ZM50.9392 90.4662C51.111 90.4795 51.2851 90.495 51.4569 90.5105C51.4546 89.8964 51.4603 89.2845 51.4729 88.6682L50.9392 90.4662ZM89.3525 90.7277L97.6421 91.2908L101.131 89.6037L89.8954 90.3619L89.3525 90.7277ZM105.938 91.854L109.264 92.0801C108.595 91.7875 107.924 91.4993 107.254 91.2177L105.938 91.854ZM73.4533 94.0843C74.3443 94.2993 75.2377 94.5188 76.1264 94.7494C76.1585 94.5898 76.1894 94.4324 76.2192 94.2727L73.4533 94.0843ZM45.0522 94.5342L46.777 95.5895L47.0611 94.6318C46.3899 94.5941 45.7234 94.5631 45.0522 94.5342ZM81.2547 96.166C81.4139 96.2126 81.5777 96.2614 81.7381 96.3101L82.0885 95.6051L81.2547 96.166ZM112.296 96.7202L111.776 97.0328L115.535 96.9419L112.296 96.7202ZM49.0124 96.9597L49.4327 97.2146C49.7534 96.8599 50.0741 96.5074 50.3948 96.1549C50.4875 95.7181 50.5872 95.2947 50.6937 94.8823C50.3455 94.8557 50.0019 94.8269 49.6526 94.8003L49.0124 96.9597ZM84.4986 97.1614C84.6967 97.2235 84.8983 97.2878 85.0964 97.3521L89.5905 95.1795L85.6221 94.9112L84.4986 97.1614ZM98.4506 95.7825C97.5447 96.3168 96.6399 96.8621 95.7374 97.4186L104.727 97.2013C105.125 96.8932 105.523 96.5872 105.924 96.2902L98.4506 95.7825ZM64.6047 96.6936L64.3848 98.1746L70.7801 98.0194C70.7766 97.9906 70.7732 97.9595 70.7698 97.9285C68.7163 97.474 66.6639 97.0617 64.6047 96.6936ZM57.9321 98.1435C57.9459 98.2033 57.9608 98.2676 57.9745 98.3275L61.0221 98.2543C61.0691 97.5427 61.1034 96.8288 61.1263 96.1127C60.0452 95.9464 58.9595 95.7913 57.8783 95.6494L57.9321 98.1435ZM54.1344 97.5627C54.1653 97.8487 54.1974 98.1325 54.2317 98.4185L54.5581 98.4096C54.7322 97.7312 54.88 97.0306 55.0048 96.3101C55.0037 96.3079 55.0037 96.3079 55.0037 96.3057C54.7345 96.585 54.4665 96.8644 54.1997 97.1459C54.1779 97.2856 54.1573 97.4253 54.1344 97.5627ZM97.2886 101.815C97.7662 102.012 98.2461 102.212 98.7225 102.411C98.9493 102.194 99.1772 101.977 99.4051 101.766L97.2886 101.815ZM60.2071 103.815L61.0879 104.353L61.2471 103.278C61.1291 103.118 61.0272 102.919 60.947 102.691L60.3847 102.704C60.3766 103.099 60.3148 103.482 60.2071 103.815ZM66.9739 105.754L67.4801 105.861L71.5229 103.908C71.4737 103.537 71.4256 103.169 71.3764 102.799L66.9739 105.754ZM46.0969 106.783C46.6821 106.819 47.2685 106.852 47.8526 106.883C48.1011 106.708 48.3497 106.533 48.5993 106.36L46.3614 105.892L46.0969 106.783ZM37.2645 94.4146C26.0155 94.5499 14.7687 96.0086 3.59303 98.8109C2.62297 99.0526 2.28511 100.627 2.28969 101.901C2.29084 102.351 2.36299 104.613 3.58845 104.879L14.5878 107.273C14.5889 107.207 14.5924 107.14 14.597 107.071C14.6714 105.945 15.2005 105.129 15.7617 105.14C24.5862 105.595 33.1495 106.056 41.5043 106.526C41.8857 106.052 42.2682 105.579 42.6508 105.114L34.1035 103.32C33.4999 103.194 33.0533 102.181 33.0819 101.01C33.1117 99.8396 33.6064 98.9151 34.2123 98.8996L44.1935 98.6579L37.2645 94.4146ZM74.3989 107.313L75.0299 107.444C75.6633 106.932 76.3001 106.42 76.9334 105.919L76.9712 105.848L74.5581 107.012C74.5054 107.111 74.4516 107.213 74.3989 107.313ZM82.0788 108.923C85.4161 109.129 88.7295 109.333 92.0245 109.539C93.1778 108.182 94.3437 106.881 95.5267 105.63C92.9121 104.582 90.2905 103.606 87.6621 102.704C85.0313 104.528 82.4144 106.444 79.8157 108.448L82.0788 108.923ZM96.3498 109.809C99.7204 110.018 103.073 110.228 106.409 110.439C103.956 109.255 101.488 108.133 99.0194 107.078C98.1227 107.956 97.2317 108.869 96.3498 109.809ZM42.1477 110.998C41.843 111.381 41.5384 111.765 41.2337 112.148C41.5166 111.9 41.7983 111.656 42.0824 111.41L42.2038 111C42.1843 111 42.166 111 42.1477 110.998ZM28.1782 110.228L37.0977 112.17C37.4516 111.703 37.8055 111.237 38.1617 110.774C34.869 110.592 31.5408 110.41 28.1782 110.228ZM116.465 111.071C131.682 112.029 147.205 112.995 163.436 113.951L189.365 107.116C189.639 106.69 189.578 106.027 189.55 105.814C189.506 105.484 189.381 104.879 189.022 104.974C171.548 106.564 154.039 105.187 136.706 100.866L105.188 101.624C104.236 102.378 103.29 103.167 102.352 103.99C107.085 106.111 111.794 108.473 116.465 111.071ZM62.7702 112.705L62.4599 114.305C63.6567 113.838 64.8352 113.208 65.9851 112.381C65.2315 112.337 64.4779 112.292 63.722 112.246L62.7702 112.705ZM46.2725 114.168C46.5691 114.23 46.868 114.294 47.1704 114.359L48.2916 113.607C48.7566 112.864 49.2273 112.135 49.7038 111.426C49.4804 111.412 49.2537 111.399 49.0303 111.39C48.1599 112.578 47.2322 113.514 46.2725 114.168ZM112.193 115.239L117.722 116.398C117.184 116.092 116.643 115.786 116.103 115.485C114.799 115.403 113.494 115.321 112.193 115.239ZM76.2608 113.643L84.8516 118.903C85.8709 117.429 86.9051 116.001 87.953 114.616L81.9174 113.348C80.1422 113.241 78.3589 113.13 76.5712 113.022L76.2608 113.643ZM163.555 118.396L161.376 118.97C163.122 118.848 164.905 118.715 166.705 118.58C165.653 118.515 164.602 118.456 163.555 118.396ZM129.215 118.808L140.803 121.24C140.927 120.424 141.29 119.79 141.748 119.668L149.716 117.569C141.293 117.057 133.035 116.547 124.886 116.035C126.334 116.939 127.774 117.862 129.215 118.808ZM64.4951 121.491C65.9015 121.792 67.3137 122.083 68.7201 122.355L72.0414 115.711L71.3909 115.312C69.0785 117.301 66.7788 119.358 64.4951 121.491ZM71.6365 122.901C72.6798 123.089 73.7243 123.269 74.7688 123.439C74.4344 121.821 74.116 120.185 73.8148 118.542L71.6365 122.901ZM77.335 123.847C78.6349 124.045 79.9382 124.231 81.2393 124.404C81.7042 123.659 82.1715 122.927 82.6434 122.202L76.2 118.254C76.5562 120.138 76.933 122.005 77.335 123.847ZM84.6179 124.825C85.5593 124.936 86.495 125.04 87.4364 125.135L85.2879 123.821C85.0657 124.151 84.8412 124.49 84.6179 124.825ZM109.998 123.311C110.527 123.311 111.001 124.023 111.117 125.062C111.161 125.461 111.147 125.858 111.086 126.22C117.868 126.144 124.648 125.732 131.433 124.989C130.527 124.371 129.626 123.765 128.716 123.165L91.5209 115.363C90.1774 117.023 88.8546 118.757 87.5582 120.56L96.2028 125.854C98.4751 125.991 100.745 126.089 103.02 126.153L109.756 123.36C109.839 123.324 109.919 123.311 109.998 123.311ZM64.0854 125.865C64.6511 126.672 65.2318 127.441 65.8205 128.162L66.6955 126.41C65.825 126.235 64.9546 126.051 64.0854 125.865ZM78.4028 128.454C78.4429 128.614 78.483 128.776 78.5231 128.937C78.6044 128.793 78.6892 128.649 78.7716 128.507C78.6479 128.487 78.5265 128.472 78.4028 128.454ZM63.3017 130.206C63.3956 131.019 63.4872 131.835 63.5743 132.651L64.2042 131.394C63.8995 131.008 63.5995 130.611 63.3017 130.206ZM99.4064 134.014C99.4385 134.032 99.4683 134.054 99.4992 134.074C99.6149 134.032 99.7306 133.994 99.8462 133.952L99.4064 134.014ZM67.8677 130.438C69.1447 131.722 70.4549 132.793 71.7719 133.622C72.8474 134.298 73.932 134.864 75.0246 135.329C75.5961 134.229 76.1744 133.143 76.7608 132.072C76.4184 130.747 76.0908 129.407 75.777 128.053C73.7166 127.727 71.6551 127.368 69.5959 126.98L67.8677 130.438ZM77.7851 136.302C77.8332 136.318 77.8813 136.331 77.9305 136.342C77.9111 136.276 77.8916 136.209 77.8721 136.143C77.8423 136.196 77.8148 136.247 77.7851 136.302ZM80.7654 136.928C85.2103 137.564 89.7136 136.93 94.1309 135.75C92.027 134.841 89.8979 134.236 87.762 133.955C87.1573 133.875 86.69 132.897 86.6957 131.72C86.7015 130.693 87.0679 129.827 87.5661 129.592C85.7108 129.401 83.8543 129.186 82 128.949C81.188 130.277 80.3898 131.631 79.6018 133.017C79.974 134.34 80.36 135.646 80.7654 136.928ZM103.516 137.118C104.365 137.848 105.204 138.626 106.034 139.451L125.631 130.352L125.385 130.376L106.748 132.986C106.842 133.332 106.889 133.726 106.876 134.136C106.848 135.147 106.468 135.992 105.955 136.187C105.15 136.498 104.337 136.808 103.516 137.118ZM47.1371 121.504C44.0929 127.091 41.3751 133.458 39.0502 140.484C38.7203 141.484 39.088 142.286 39.1659 142.437C39.3319 142.765 39.6068 143.066 39.9538 142.652C45.4249 136.032 50.999 129.855 56.6693 124.131C53.49 123.329 50.3095 122.453 47.1371 121.504ZM82.335 141.545C83.1756 143.838 84.0816 146.039 85.0573 148.134C85.1925 148.423 85.3288 148.711 85.4662 148.995L102.495 141.091C101.448 140.198 100.386 139.382 99.3127 138.646C93.805 140.535 88.0614 141.989 82.335 141.545ZM75.7814 140.156C73.1232 145.423 70.6333 151.032 68.3404 156.945L82.9326 150.174C81.6498 147.33 80.4885 144.31 79.4348 141.162C78.2128 140.929 76.9954 140.597 75.7814 140.156ZM64.1056 137.972C64.6943 144.421 65.0986 150.928 65.3105 157.446C67.7133 150.952 70.3417 144.796 73.1648 139.025C72.4639 138.672 71.7642 138.278 71.0667 137.839C69.4243 136.806 67.7957 135.424 66.2175 133.744L64.1056 137.972ZM62.1274 141.931L54.4631 157.268C53.7977 158.601 53.9168 160.272 54.2192 161.301C54.3543 161.756 54.8651 163.208 55.85 162.744L63.0757 159.39C62.9153 153.551 62.5981 147.722 62.1274 141.931ZM87.3758 152.67C93.0931 162.913 100.746 170.136 111.153 175.186C113.776 176.45 115.645 173.554 116.514 170.406C117.54 166.688 117.593 161.21 115.396 157.359C112.423 152.145 109.169 147.713 105.734 144.148L87.3758 152.67ZM112.376 179.919C111.792 179.919 111.195 179.778 110.596 179.485C99.1328 173.925 90.8501 165.746 84.7297 153.896L66.2894 162.458C65.9458 163.425 65.6057 164.4 65.2712 165.383C64.9952 166.192 64.4741 166.562 63.9988 166.294C63.5167 166.028 63.1811 165.185 63.1696 164.216C63.1685 164.115 63.1673 164.01 63.1662 163.908L56.3838 167.056C54.7231 167.821 53.0934 166.429 52.2287 163.5C51.3262 160.439 51.5621 156.694 52.8162 154.185L61.6407 136.526C61.2822 132.89 60.8653 129.277 60.3889 125.692C60.3568 125.632 60.3213 125.572 60.2892 125.517C53.7851 131.891 47.4105 138.856 41.1698 146.41C39.9902 147.842 38.5299 147.498 37.5381 145.556C36.5062 143.539 36.3355 140.47 37.1235 138.094C39.0556 132.247 41.2511 126.84 43.6723 121.93L40.8079 123.315C40.2101 123.595 39.6065 122.934 39.4336 121.797C39.2778 120.788 39.5114 119.728 39.9695 119.232C39.7038 119.143 39.4439 119.056 39.177 118.966C31.8769 126.027 25.0213 134.981 18.8344 145.596C18.3626 146.407 17.6422 146.328 17.2218 145.416C16.8004 144.505 16.8405 143.109 17.3077 142.29C22.4936 133.238 27.9165 124.792 33.5468 116.977C31.3043 116.154 29.0618 115.294 26.8228 114.396L3.33524 109.286C1.3871 108.863 0.0173406 105.841 0.000161245 101.939C-0.0170181 97.9994 1.34015 94.9023 3.30088 94.4101C12.3063 92.1555 21.3598 90.7632 30.4213 90.2267L23.3239 85.8792C22.8154 85.5688 22.4856 84.6199 22.5268 83.5934C22.5692 82.5648 22.9712 81.7267 23.498 81.5715C30.1739 79.6228 36.9219 78.2505 43.7009 77.4524L48.7402 74.3464C48.4115 73.3753 48.0782 72.4132 47.7392 71.4554C46.8665 68.9924 46.8149 65.8819 47.6063 63.3435C48.3531 60.9469 49.6999 59.6433 51.1201 59.9714C53.571 60.5235 56.2578 60.3527 58.853 60.1865C62.55 59.9448 66.3134 59.712 69.6668 61.4502L108.26 37.6663C108.833 37.3094 109.455 37.8836 109.675 38.9743C109.894 40.0673 109.636 41.2999 109.088 41.7921L76.7699 70.6839C76.9417 71.1406 77.1066 71.6084 77.259 72.085C84.9209 66.6357 92.7661 62.1928 100.737 58.8186C101.237 58.608 101.738 59.0514 101.981 59.9027C102.227 60.7585 102.156 61.8204 101.805 62.5254L96.801 72.5373L112.536 70.5509C113.113 70.5309 113.622 71.2337 113.734 72.3223C113.847 73.4108 113.528 74.4927 112.987 74.8563L99.6802 83.7908C100.823 84.1898 101.964 84.6066 103.104 85.0345L111.077 84.498C113.408 83.4028 115.749 82.3719 118.099 81.4097C118.715 81.1636 119.31 81.9019 119.451 83.0813C119.591 84.2585 119.219 85.438 118.613 85.7306L116.668 86.6684C116.621 87.471 116.349 88.1804 115.944 88.4841L114.858 89.2978C118.421 90.7211 121.997 92.018 125.583 93.1886L163.804 95.7847C164.426 95.8246 164.916 96.82 164.909 98.0238C164.902 99.2277 164.399 100.201 163.777 100.216L158.841 100.334C168.85 101.385 178.888 101.46 188.914 100.545C190.308 100.463 191.417 102.094 191.766 104.704C192.121 107.36 191.5 110.047 190.259 111.237C190.148 111.343 190.027 111.414 189.905 111.448L177.357 114.755C186.823 115.29 196.557 115.822 206.623 116.336H206.627C207.258 116.369 207.758 117.387 207.742 118.609C207.726 119.815 207.216 120.77 206.596 120.77H206.568C199.589 120.435 186.736 121.446 174.308 122.424C166.555 123.036 158.635 123.659 152.058 123.96C152.323 124.384 152.488 125.031 152.478 125.743C152.461 126.9 151.987 127.836 151.389 127.893L137.992 129.173C137.973 129.184 137.956 129.192 137.937 129.201L108.99 142.636C111.791 145.902 114.456 149.728 116.933 154.074C120.046 159.53 119.979 167.258 118.534 172.497C117.229 177.221 114.923 179.919 112.376 179.919Z"
              stroke="#4286F5" stroke-width="8" mask="url(#path-1-inside-1_545_58555)"/>
        <path fill-rule="evenodd" clip-rule="evenodd"
              d="M113.417 242.52C94.017 242.52 78.5341 237.74 69.8625 228.633C62.7669 221.182 55.8549 206.001 72.083 179.167C72.4567 178.549 73.253 178.316 73.8968 178.643L74.5974 178.998C75.3262 179.369 75.5767 180.289 75.1526 180.988C63.5437 200.118 62.4653 215.688 72.4535 226.178C95.9828 250.893 174.088 239.972 230.343 193.071C219.624 195.185 212.599 192.793 204.921 190.178L204.901 190.171C203.662 189.75 202.401 189.321 201.095 188.899C200.159 188.598 199.645 187.594 199.945 186.659C200.248 185.723 201.257 185.218 202.186 185.51C203.511 185.937 204.792 186.373 206.049 186.802C217.951 190.858 227.357 194.061 252.417 180.597C253.292 180.129 254.362 180.456 254.828 181.323C255.294 182.19 254.969 183.267 254.104 183.733C224.948 199.399 225.847 216.879 226.64 232.301C226.69 233.283 225.936 234.122 224.955 234.172C224.923 234.173 224.893 234.173 224.861 234.173C223.921 234.173 223.133 233.436 223.085 232.486C222.416 219.485 222.896 207.421 232.172 196.19C206.082 217.783 173.081 233.562 140.882 239.735C131.142 241.604 121.902 242.52 113.417 242.52ZM236.494 191.625C236.577 191.547 236.661 191.47 236.746 191.392C236.658 191.421 236.57 191.449 236.482 191.477C236.488 191.526 236.492 191.575 236.494 191.625Z"
              fill="#4286F5"/>
        <path d="M384.84 119.067C384.471 126.351 379.481 133.654 374.266 138.408C366.713 145.295 355.191 147.556 345.254 146.424C335.049 145.262 325.789 139.826 320.346 131.058C318.862 128.668 317.682 126.021 316.725 123.376C316.672 123.229 316.564 122.779 316.564 122.935M367.497 88.1243C369.921 99.9522 367.355 112.515 360.739 122.665C359.4 124.719 357.081 127.974 354.55 128.895C350.471 130.38 350.197 120.697 350.126 119.322C349.757 112.218 350.609 104.993 352.608 98.1705C354.142 92.9353 356.649 86.6952 361.093 83.1787C362.283 82.2372 363.884 81.5048 365.445 81.8294C366.744 82.0993 367.043 83.2107 367.612 84.1934M348.59 83.7497C351.015 95.5776 350.395 112.417 343.779 122.566C342.44 124.62 339.767 127.975 337.236 128.895C333.156 130.38 332.883 120.697 332.811 119.322C332.443 112.218 333.295 104.993 335.294 98.1707C336.828 92.9355 339.335 86.6953 343.779 83.1788C344.968 82.2374 346.569 81.5049 348.131 81.8295C349.43 82.0995 349.728 83.2109 350.298 84.1935M378.388 116.588C381.959 116.78 386.23 117.295 388.897 119.962C389.372 120.436 389.971 120.969 390.187 121.616M319.406 120.465C316.559 121.399 313.778 122.874 312.355 125.63M352.512 103.925C352.617 103.626 352.77 103.129 352.966 102.568M352.966 102.568C353.512 101.007 354.389 98.9463 355.474 99.2356C357.382 99.744 356.152 106.172 355.869 107.478C355.411 109.586 353.81 112.257 353.136 108.673C352.761 106.682 352.805 104.608 352.966 102.568ZM352.966 102.568C353.025 101.83 353.098 101.097 353.173 100.373M334.076 103.925C334.174 103.626 334.317 103.129 334.5 102.568M334.5 102.568C335.009 101.007 335.827 98.9463 336.841 99.2356C338.621 99.744 337.473 106.172 337.209 107.478C336.781 109.586 335.287 112.257 334.658 108.673C334.309 106.682 334.35 104.608 334.5 102.568ZM334.5 102.568C334.554 101.83 334.623 101.097 334.692 100.373"
              stroke="#191414" stroke-width="2.13755" stroke-linecap="round" stroke-linejoin="round"/>
        <path d="M396.683 76.051C393.835 73.7881 391.657 71.045 389.745 67.9169C386.187 62.0948 382.675 54.6642 383.77 47.6003C384.896 40.3409 391.348 34.7242 397.482 31.5996C402.917 28.831 410.002 26.9163 415.87 29.4232C419.481 30.9661 421.495 33.9413 422.507 37.7048C424.596 45.4671 422.857 53.4345 419.801 60.6682C417.709 65.6217 414.927 70.2872 411.956 74.7414C411.67 75.1701 411.352 75.5525 411.229 76.051M401.936 77.2755C401.559 70.3208 399.107 63.5816 397.435 56.8421M397.435 56.8421C397.241 56.057 397.057 55.2719 396.888 54.4865C396.745 53.8247 396.144 51.8089 395.162 51.5454C394.623 51.4008 394.215 51.737 394 52.2278C393.449 53.4806 393.365 54.0381 394.272 54.9845C395.166 55.9161 396.248 56.5101 397.435 56.8421ZM397.435 56.8421C401.197 57.8941 406.007 56.3165 409.174 54.5206M409.174 54.5206C409.522 54.3235 409.849 54.1239 410.154 53.9247C410.468 53.7193 413.524 52.0005 413.468 51.4347C413.413 50.869 410.992 49.2573 410.526 49.9499C409.7 51.1791 409.408 52.938 409.174 54.5206ZM409.174 54.5206C409.1 55.0202 409.032 55.5022 408.955 55.9444C408.202 60.2656 407.717 64.5893 407.33 68.957C407.151 70.9766 406.695 74.6562 406.531 76.6483M395.875 82.2573C401.202 82.1705 406.32 81.3673 411.582 80.6435C412.099 80.5724 413.38 80.1078 413.147 80.5819C412.883 81.1167 412.23 81.3357 411.74 81.666C410.384 82.578 408.724 83.6087 407.325 84.4007C405.094 85.6633 402.792 86.7776 400.447 87.8006C400.249 87.8872 397.5 89.079 397.67 89.0694C402.487 88.7976 407.65 87.2387 412.225 85.7804C412.866 85.5759 413.984 84.992 414.723 84.992C415.749 84.992 413.212 86.4034 412.407 87.0492C410.722 88.4011 409.029 89.7437 407.349 91.102C406.305 91.9457 404.936 92.8203 404.098 93.9106C403.912 94.1531 407.901 94.2309 408.537 94.2309"
              stroke="#191414" stroke-width="3.70968" stroke-linecap="round" stroke-linejoin="round"/>
        <path d="M352.004 63.8744C352.004 44.7225 351.613 25.1799 351.613 6.02808M367.64 67.783C368.422 65.4378 369.203 63.0927 370.376 60.7476C375.067 49.4129 379.758 37.6873 384.449 26.3525M400.478 109.995C418.069 106.868 436.052 104.914 454.034 104.523M400.869 132.665C415.724 138.918 429.797 146.344 443.871 154.162M351.612 165.496C352.003 180.349 351.612 195.201 351.221 209.663M299.619 116.639C279.682 116.639 259.745 116.639 240.199 116.639M323.075 75.9909C316.429 68.1738 310.565 59.1842 305.874 49.8037M305.092 90.0614C291.41 78.7267 278.51 67.3919 265.609 55.2755M305.092 138.527C287.892 146.735 271.082 155.725 255.054 165.887M323.466 160.806C315.257 170.577 307.438 180.739 300.011 191.292M384.06 154.943C392.269 162.369 399.306 170.968 404.779 180.739"
              stroke="#4286F5" stroke-width="3.70968" stroke-linecap="round" stroke-linejoin="round"/>
    </g>
    <defs>
        <clipPath id="clip0_545_58555">
            <rect width="460" height="242.52" fill="white"/>
        </clipPath>
    </defs>
</svg>
