<svg width="66" height="66" viewBox="0 0 66 66" fill="none" xmlns="http://www.w3.org/2000/svg">
    <g clip-path="url(#clip0_454_30845)">
        <path d="M38.2484 20.8686C38.5743 20.7332 38.8973 20.5898 39.2174 20.4386C39.5177 20.2973 39.8141 20.1481 40.1038 19.9851C37.3866 15.8504 42.0495 12.6619 45.7308 12.1995C49.465 11.7333 54.5628 12.9349 56.3779 16.6062C58.2802 20.4543 54.2221 23.2256 50.8855 23.7801C49.2696 24.0481 47.5958 23.9844 45.9998 23.628C45.4008 23.4945 45.3469 23.4581 44.9651 23.89C44.5428 24.369 44.162 24.8775 43.8076 25.4077C48.6187 27.0264 56.2521 26.673 59.1353 21.7805C60.9866 18.6392 59.2011 15.1866 56.5436 13.2086C53.8499 11.207 50.3926 10.2891 47.0656 10.2891C43.3578 10.2891 38.7597 11.5114 36.9241 15.0698C35.9926 16.8761 36.1937 18.9728 37.2274 20.6848C37.5652 21.2535 37.6821 21.1023 38.2484 20.8686Z"
              fill="#91B6FF"/>
        <path d="M12.2452 25.7692C15.4258 26.6537 18.8969 26.4701 22.0156 25.4266C21.7202 24.977 20.818 23.3915 20.2664 23.5466C19.5998 23.7352 18.9137 23.8657 18.2255 23.9413C16.6176 24.1189 14.9663 24.0099 13.4124 23.5457C11.8083 23.0519 10.224 22.1674 9.35413 20.6793C8.38327 19.0076 8.77012 17.0785 9.9402 15.6178C12.3236 12.7209 16.6891 11.7441 20.2712 12.3145C23.8366 12.8819 28.0636 15.9937 25.6193 19.945C26.0807 20.1953 27.8173 21.283 28.2394 21.0493C28.587 20.8569 28.8363 19.9794 28.9619 19.6436C29.7197 17.6469 29.2534 15.4999 27.886 13.8941C25.6615 11.2809 21.8851 10.3404 18.5759 10.3483C15.6349 10.3483 12.6202 11.0708 10.0933 12.5993C7.56066 14.1317 5.20364 16.8695 5.8094 20.0364C6.40036 23.1286 9.42788 24.9859 12.2452 25.7692Z"
              fill="#91B6FF"/>
        <path d="M47.9101 43.5901C48.8573 45.4827 51.2585 46.3937 53.2563 45.6653C56.4202 44.5109 55.1323 40.8944 52.5701 39.957C51.1752 39.5378 49.8813 39.2914 48.567 38.5208C46.049 37.0463 43.8344 34.8827 42.2273 32.4521C41.5226 31.386 40.7244 30.0647 40.7637 28.7375C40.802 27.43 41.4596 26.1469 42.1458 25.0641C43.637 22.71 45.9723 20.4698 48.7573 19.817C49.7695 19.6069 51.1398 19.3242 51.182 17.9882C51.2596 15.5223 47.0983 15.1827 45.6544 16.3352C45.353 16.5747 45.2206 16.7868 45.0821 17.1175C44.7964 17.7998 44.555 18.3486 43.9993 18.9033C41.9574 20.9373 38.93 22.1476 36.1952 22.8898C33.2746 23.681 30.6487 23.3492 27.8195 22.3342C25.4487 21.483 21.9689 20.0871 20.8262 17.632C20.7104 17.3836 20.6928 17.1127 20.567 16.8684C20.0643 15.968 18.8953 15.6559 17.9351 15.6559C16.6168 15.6521 14.1891 16.4923 14.5995 18.2465C14.8303 19.2321 15.7765 19.5856 16.6482 19.7553C18.8168 20.1795 20.6476 21.4792 22.121 23.0921C23.8438 24.9777 25.705 27.757 24.6732 30.3818C23.6376 33.0156 21.4907 35.3314 19.3144 37.0798C17.6652 38.4051 15.8697 39.3836 13.8083 39.8628C11.9381 40.2976 9.84042 42.152 10.8868 44.244C11.5161 45.5024 13.0347 45.9972 14.359 45.8912C15.3878 45.8088 17.4306 45.1462 17.7615 43.9857C18.1218 42.7185 18.9982 41.6601 19.9487 40.7787C22.0983 38.7859 24.8274 37.3673 27.5555 36.3465C30.3219 35.3108 32.9527 34.8406 35.8456 35.5837C38.7376 36.3268 41.5688 37.6207 44.0238 39.3199C45.6897 40.4745 47.0061 41.7839 47.9101 43.5901Z"
              fill="#91B6FF"/>
        <path d="M17.9297 15.6562C18.0248 15.6562 17.6279 15.655 17.9297 15.6562Z" fill="#91B6FF"/>
        <path d="M64.4862 39.3033C61.5559 34.4834 55.7278 31.8162 50.2001 31.8162C48.2917 31.8162 46.3686 32.1274 44.582 32.8066C45.0944 33.4742 45.6599 34.1005 46.2587 34.6925C46.7358 35.1638 46.936 34.9487 47.5476 34.7926C48.5213 34.5383 49.5296 34.4225 50.5348 34.4225C53.1735 34.4225 55.8347 35.2304 58.012 36.7246C60.3239 38.3021 62.1861 40.8072 62.3608 43.6727C62.5209 46.3094 61.1447 48.7322 58.9761 50.1773C54.3583 53.2547 47.5603 52.0758 43.7367 48.2492C41.796 46.3075 40.5768 43.5372 41.1686 40.7749C41.2334 40.4715 41.3188 40.1721 41.4229 39.8805C41.579 39.4417 41.3964 39.4996 41.0282 39.2925C40.5198 39.0078 40.0005 38.7427 39.4733 38.4944C39.1866 38.3599 38.6056 37.9889 38.3798 38.1145C38.3188 38.1488 38.2934 38.3196 38.2463 38.3756C35.5505 44.1537 39.4939 50.2645 44.5407 53.1004C49.3862 55.8119 55.7689 56.338 60.7155 53.5747C65.9343 50.6582 67.6039 44.4334 64.4862 39.3033Z"
              fill="#91B6FF"/>
        <path d="M24.733 39.3408C24.3393 39.5598 24.5534 39.6904 24.7007 40.0839C24.8605 40.5099 24.9726 40.9517 25.0443 41.4012C25.4938 44.2353 24.1195 47.0085 22.0601 48.8913C18.0765 52.5332 11.249 53.5159 6.77861 50.1793C4.57847 48.5379 3.38676 45.8562 3.85006 43.1252C4.3252 40.3244 6.31801 38.0117 8.68958 36.5696C10.9985 35.1658 13.7628 34.4933 16.4575 34.6809C17.1505 34.7319 17.8397 34.8359 18.514 35.0048C19.0961 35.1502 19.0136 35.1246 19.4338 34.8448C20.1121 34.3923 20.6932 33.5382 21.1939 32.9069C19.5016 32.317 17.7169 32.0334 15.9254 32.0334C10.3268 32.0334 4.41927 34.7555 1.52238 39.6914C-1.67385 45.1366 0.561301 51.5753 6.18134 54.2533C11.392 56.7368 17.9015 55.9163 22.6546 52.7827C27.4294 49.6364 30.6484 43.3982 27.5532 37.9674C26.5854 38.365 25.647 38.8324 24.733 39.3408Z"
              fill="#91B6FF"/>
    </g>
    <defs>
        <clipPath id="clip0_454_30845">
            <rect width="66" height="66" fill="white"/>
        </clipPath>
    </defs>
</svg>
