<svg width="160" height="172" viewBox="0 0 160 172" fill="none" xmlns="http://www.w3.org/2000/svg">
    <!-- Top diamond (12 o'clock position) - BLUE -->

    <!-- Top-right diamond (1-2 o'clock) - RED -->
    <path d="M129.475 7.66681L130.599 13.6635L142.78 41.627L155.544 56.0982L146.34 65.5929L133.431 83.1874L129.017 91.6202"
          stroke="#F6F6F6" stroke-width="7.08751" stroke-linecap="round"/>

    <!-- Right diamond (3 o'clock) - GREEN -->
    <path d="M129.017 91.6202C127.715 94.2234 125.292 97.6282 124.977 100.615C124.915 101.208 124.519 104.727 124.248 103.78C123.916 102.616 123.896 100.994 123.395 99.8657C122.916 98.788 122.354 96.3857 122.354 95.1808C122.354 93.3079 121.421 91.0416 120.771 89.2882C119.241 85.1559 116.439 81.4566 114.774 77.2948C114.317 76.152 112.618 74.1993 111.672 73.4636C110.323 72.4147 109.717 70.7381 108.486 69.5074L101.365 62.3864C100.203 61.224 98.9778 60.3265 97.8047 59.388C96.9879 58.7346 95.2522 56.8765 94.2441 56.7645"
          stroke="#F6F6F6" stroke-width="7.08751" stroke-linecap="round"/>
    <polyline points="93.123,56.0148 106.574,41.4395 119.817,24.5322 128.728,3.54376" stroke="#F6F6F6"
              stroke-width="7.08751" stroke-linecap="round" fill="none"/>
    <path d="M37.6504 74.3797C37.8825 76.2362 39.3958 77.9589 39.92 79.7934C40.3388 81.2594 41.4998 84.1575 42.4394 85.332C42.9597 85.9823 43.187 87.774 43.5638 88.6218C43.9407 89.47 44.5946 90.5434 44.7923 91.4328C45.1998 93.2665 47.2196 95.9737 48.4361 97.3254C51.7517 101.009 53.9841 105.33 57.5144 108.861C58.3197 109.666 59.1827 110.596 60.138 111.193C60.7005 111.544 62.4489 113.019 62.7615 113.566C63.7328 115.266 66.6755 115.564 67.6338 117.481"
          stroke="#F6F6F6" stroke-width="7.08751" stroke-linecap="round"/>

    <!-- Bottom-right diamond (4-5 o'clock) -->
    <path d="M67.6338 117.481C67.5154 118.556 66.0064 119.246 65.4694 120.105C64.922 120.981 64.0281 121.796 63.3039 122.52C62.313 123.511 61.1804 124.368 60.139 125.352C58.9361 126.488 57.7515 128.412 56.2037 129.1C55.0754 129.601 53.9094 131.904 53.0179 132.848C52.1121 133.807 51.3696 134.994 50.5609 136.034C48.8725 138.204 46.8517 140.849 45.5221 143.175C44.9167 144.235 44.0649 145.065 43.4607 146.153C42.8408 147.269 43.2197 149.031 42.4404 150.005C41.8681 150.72 41.2957 152.419 41.0454 153.295C40.7485 154.334 39.9686 155.09 39.4421 156.085C38.412 158.031 36.276 161.102 36.1522 163.206C36.0896 164.271 34.955 165.054 34.6739 166.038C34.3186 167.281 33.6532 167.704 32.4043 167.704"
          stroke="#F6F6F6" stroke-width="7.08751" stroke-linecap="round"/>

    <!-- Bottom diamond (6 o'clock) -->
    <path d="M33.5286 165.454C30.5302 152.524 30.5302 148.161 25.4497 139.031C22.0771 134.695 18.6738 130.944 14.8722 127.142C13.5709 125.841 10.7105 124.506 9.83333 123.103C9.31148 122.268 7.61719 121.83 6.75169 121.583C5.81241 121.314 4.93272 120.217 3.91992 120.104"
          stroke="#F6F6F6" stroke-width="7.08751" stroke-linecap="round"/>

    <!-- Bottom-left diamond (7-8 o'clock) -->
    <path d="M3.54492 119.355C3.9288 120.123 5.04918 118.022 5.3356 117.481C5.8488 116.512 7.02338 116.225 7.66765 115.42C8.14822 114.819 9.70525 114.111 10.3745 113.441C11.3035 112.512 12.2404 111.748 12.9148 110.568C14.0794 108.53 16.1589 106.43 17.6205 104.551C18.3198 103.651 19.0446 102.747 19.5777 101.74C19.9213 101.091 20.8126 99.544 21.3476 99.116C24.9567 96.2287 27.3086 91.5249 29.3112 87.5198L29.3224 87.4974C30.4858 85.1705 31.903 83.0857 33.0703 80.7512C33.614 79.6637 34.4073 78.7638 34.6736 77.5654C34.9649 76.2544 36.3801 75.3242 36.5267 74.0049"
          stroke="#F6F6F6" stroke-width="7.08751" stroke-linecap="round"/>

    <!-- Left diamond (9 o'clock) -->

    <!-- Top-left diamond (10-11 o'clock) -->
    <path d="M59.765 5.41779C56.4919 10.3275 55.5356 16.179 52.5607 21.5339C48.6623 28.551 41.0254 35.1048 41.0254 43.6463C42.4338 45.7589 45.1072 47.1455 46.3558 49.2682C46.8407 50.0926 48.1495 51.2381 48.8128 51.975C49.7203 52.9834 50.1612 54.3478 51.0615 55.3482C52.5096 56.9571 53.4559 59.2781 54.8094 60.9701C56.0393 62.5074 58.2653 67.181 58.2659 69.1315C59.864 68.3308 60.9162 66.1052 62.199 64.8224C63.5952 63.4263 65.612 61.1224 66.1551 59.2214C66.4052 58.3461 67.2854 57.2045 67.7168 56.3896C68.2279 55.4241 68.3716 54.2475 69.1327 53.3912C69.9373 52.4861 70.3391 50.9611 71.3814 50.3096C71.6511 50.1411 73.2248 48.0213 73.2562 47.7698C73.939 47.4284 74.1229 45.866 74.4639 45.1462C75.1175 43.7664 76.6159 43.3884 77.6704 42.4394C79.2234 41.0418 82.4285 39.5304 79.7943 38.0251C77.7497 36.8568 76.7514 34.0245 75.1302 32.4032C73.5535 30.8266 71.3587 28.8744 70.2579 26.9479C69.0953 24.9135 67.1224 23.0242 66.3225 20.7847C65.7349 19.1392 64.6619 16.4132 63.5949 15.0795L63.5512 15.0249C62.7203 13.9866 60.8884 11.6973 60.5341 10.457C59.9378 8.37012 59.7637 6.60212 59.7637 4.29376"
          stroke="#F6F6F6" stroke-width="7.08751" stroke-linecap="round"/>
</svg>
