<svg width="160" height="172" viewBox="0 0 160 172" fill="none" xmlns="http://www.w3.org/2000/svg">
    <g clip-path="url(#clip0_352_110086)">
        <path d="M129.475 7.66797L130.599 13.6647L142.78 41.6282L155.544 56.0994L146.34 65.5941L133.431 83.1886L129.017 91.6214"
              stroke="#303030ff" stroke-width="7.08751" stroke-linecap="round"/>
        <path d="M129.017 91.6213C127.715 94.2245 125.292 97.6293 124.977 100.616C124.915 101.209 124.519 104.728 124.248 103.781C123.916 102.617 123.896 100.995 123.395 99.8668C122.916 98.7891 122.354 96.3868 122.354 95.1819C122.354 93.309 121.421 91.0427 120.771 89.2893C119.241 85.157 116.439 81.4577 114.774 77.2959C114.317 76.1531 112.618 74.2004 111.672 73.4647C110.323 72.4158 109.717 70.7392 108.486 69.5085L101.365 62.3875C100.203 61.2251 98.9778 60.3276 97.8047 59.3891C96.9879 58.7357 95.2522 56.8776 94.2441 56.7656"
              stroke="#303030ff" stroke-width="7.08751" stroke-linecap="round"/>
        <path d="M93.123 56.014L106.574 41.4387L119.817 24.5314L128.728 3.54297" stroke="#303030ff"
              stroke-width="7.08751" stroke-linecap="round"/>
        <path d="M37.6504 74.3789C37.8825 76.2354 39.3958 77.9581 39.92 79.7926C40.3388 81.2586 41.4998 84.1567 42.4394 85.3312C42.9597 85.9815 43.187 87.7732 43.5638 88.621C43.9407 89.4692 44.5946 90.5426 44.7923 91.432C45.1998 93.2657 47.2196 95.9729 48.4361 97.3246C51.7517 101.008 53.9841 105.329 57.5144 108.86C58.3197 109.665 59.1827 110.595 60.138 111.192C60.7005 111.543 62.4489 113.018 62.7615 113.565C63.7328 115.265 66.6755 115.563 67.6338 117.48"
              stroke="#303030ff" stroke-width="7.08751" stroke-linecap="round"/>
        <path d="M67.6338 117.48C67.5154 118.555 66.0064 119.245 65.4694 120.104C64.922 120.98 64.0281 121.795 63.3039 122.519C62.313 123.51 61.1804 124.367 60.139 125.351C58.9361 126.487 57.7515 128.411 56.2037 129.099C55.0754 129.6 53.9094 131.903 53.0179 132.847C52.1121 133.806 51.3696 134.993 50.5609 136.033C48.8725 138.203 46.8517 140.848 45.5221 143.174C44.9167 144.234 44.0649 145.064 43.4607 146.152C42.8408 147.268 43.2197 149.03 42.4404 150.004C41.8681 150.719 41.2957 152.418 41.0454 153.294C40.7485 154.333 39.9686 155.089 39.4421 156.084C38.412 158.03 36.276 161.101 36.1522 163.205C36.0896 164.27 34.955 165.053 34.6739 166.037C34.3186 167.28 33.6532 167.703 32.4043 167.703"
              stroke="#303030ff" stroke-width="7.08751" stroke-linecap="round"/>
        <path d="M33.5286 165.455C30.5302 152.525 30.5302 148.162 25.4497 139.032C22.0771 134.696 18.6738 130.945 14.8722 127.143C13.5709 125.842 10.7105 124.507 9.83333 123.104C9.31148 122.269 7.61719 121.831 6.75169 121.584C5.81241 121.315 4.93272 120.218 3.91992 120.105"
              stroke="#303030ff" stroke-width="7.08751" stroke-linecap="round"/>
        <path d="M3.54492 119.354C3.9288 120.122 5.04918 118.021 5.3356 117.48C5.8488 116.511 7.02338 116.224 7.66765 115.419C8.14822 114.818 9.70525 114.11 10.3745 113.44C11.3035 112.511 12.2404 111.747 12.9148 110.567C14.0794 108.529 16.1589 106.429 17.6205 104.55C18.3198 103.65 19.0446 102.746 19.5777 101.739C19.9213 101.09 20.8126 99.543 21.3476 99.115C24.9567 96.2277 27.3086 91.5239 29.3112 87.5188L29.3224 87.4964C30.4858 85.1695 31.903 83.0847 33.0703 80.7502C33.614 79.6627 34.4073 78.7628 34.6736 77.5644C34.9649 76.2534 36.3801 75.3232 36.5267 74.0039"
              stroke="#303030ff" stroke-width="7.08751" stroke-linecap="round"/>
        <path d="M59.765 5.417C56.4919 10.3267 55.5356 16.1782 52.5607 21.5331C48.6623 28.5502 41.0254 35.104 41.0254 43.6455C42.4338 45.7581 45.1072 47.1447 46.3558 49.2674C46.8407 50.0918 48.1495 51.2373 48.8128 51.9742C49.7203 52.9826 50.1612 54.347 51.0615 55.3474C52.5096 56.9563 53.4559 59.2773 54.8094 60.9693C56.0393 62.5066 58.2653 67.1802 58.2659 69.1307C59.864 68.33 60.9162 66.1044 62.199 64.8216C63.5952 63.4255 65.612 61.1216 66.1551 59.2206C66.4052 58.3453 67.2854 57.2037 67.7168 56.3888C68.2279 55.4233 68.3716 54.2467 69.1327 53.3904C69.9373 52.4853 70.3391 50.9603 71.3814 50.3088C71.6511 50.1403 73.2248 48.0205 73.2562 47.769C73.939 47.4276 74.1229 45.8652 74.4639 45.1454C75.1175 43.7656 76.6159 43.3876 77.6704 42.4386C79.2234 41.041 82.4285 39.5296 79.7943 38.0243C77.7497 36.856 76.7514 34.0237 75.1302 32.4024C73.5535 30.8258 71.3587 28.8736 70.2579 26.9471C69.0953 24.9127 67.1224 23.0234 66.3225 20.7839C65.7349 19.1384 64.6619 16.4124 63.5949 15.0787L63.5512 15.0241C62.7203 13.9858 60.8884 11.6965 60.5341 10.4562C59.9378 8.36933 59.7637 6.60133 59.7637 4.29297"
              stroke="#303030ff" stroke-width="7.08751" stroke-linecap="round"/>
    </g>
    <defs>
        <clipPath id="clip0_352_110086">
            <rect width="160" height="172" fill="white"/>
        </clipPath>
    </defs>
</svg>
