<svg width="66" height="66" viewBox="0 0 66 66" fill="none" xmlns="http://www.w3.org/2000/svg">
    <g clip-path="url(#clip0_420_121417)">
        <path d="M50.9846 13.03L44.7845 18.6396C44.4879 18.9067 44.3134 19.2835 44.2991 19.6817C44.284 20.0629 44.4175 20.4353 44.6704 20.7203C44.3373 20.8557 44.0024 20.9608 43.6701 21.0276C40.3879 21.6948 36.8582 20.1593 34.146 20.5699C33.9697 20.5975 33.7996 20.6296 33.6322 20.658C33.1663 20.5387 32.6819 20.4389 32.167 20.3605C31.7957 20.3045 31.4214 20.2812 31.0492 20.2812C29.9804 20.284 28.9142 20.4603 27.8551 20.6223C26.7978 20.7862 25.7522 20.9393 24.7663 20.9393C24.2478 20.9393 23.7473 20.8983 23.2663 20.7987C22.7516 20.6971 22.2003 20.4691 21.6408 20.1529C21.6853 20.0023 21.7067 19.8419 21.7014 19.6817C21.6854 19.2836 21.5091 18.9069 21.2141 18.6396L15.0141 13.03C11.3516 10.2387 -1.72898 27.8528 0.191332 29.9459C2.10817 32.039 5.56672 35.1769 5.56672 35.1769C5.85083 35.4521 6.23291 35.6052 6.6302 35.5965C7.02659 35.5885 7.40325 35.4219 7.67589 35.1341L10.0104 32.6697C10.0425 32.7061 10.0753 32.7409 10.104 32.7783C10.3043 33.0098 10.4576 33.2415 10.5181 33.3706C10.7799 33.9274 11.447 35.2848 12.3361 36.8034C12.7813 37.5623 13.282 38.3613 13.819 39.1236C14.0917 39.5067 14.3713 39.8834 14.6617 40.2397C13.8743 41.2141 13.8796 42.6445 14.7383 43.6126C15.6967 44.6957 17.3507 44.7946 18.4329 43.8354L18.5077 43.7686C18.0419 44.6976 18.1558 45.8555 18.8853 46.6802C19.8437 47.7616 21.4968 47.8613 22.579 46.9021L23.0039 46.5155C22.4222 47.4694 22.5017 48.7307 23.281 49.6106C24.2393 50.6901 25.8924 50.7899 26.9738 49.8342L27.6293 49.2409C27.0129 50.2028 27.0763 51.4916 27.8716 52.3878C28.8299 53.4691 30.484 53.5697 31.5653 52.6105L32.6217 51.702C32.7242 51.7501 32.8194 51.7937 32.9111 51.8356L33.6344 52.2577L33.6282 52.2524C33.9871 52.468 34.3639 52.6425 34.7523 52.7646C35.1416 52.8865 35.5441 52.9578 35.9538 52.9578C36.3992 52.9578 36.8542 52.8724 37.2756 52.6835C37.7023 52.4966 38.0933 52.2062 38.4165 51.8392C38.8049 51.4027 39.0613 50.8906 39.1932 50.357C39.578 50.4969 39.9815 50.5671 40.3815 50.5671C40.8651 50.5671 41.3477 50.4674 41.7967 50.2696C42.2447 50.0719 42.6625 49.7753 43.0072 49.3861C43.4346 48.9051 43.7045 48.3324 43.8213 47.7392C44.0494 47.7855 44.2818 47.8114 44.5151 47.8114C44.997 47.8114 45.4806 47.7134 45.9296 47.514C46.3784 47.317 46.7944 47.0196 47.1382 46.6312C47.605 46.104 47.8855 45.4671 47.9798 44.8151C48.0796 44.824 48.1803 44.8276 48.2792 44.8276C48.859 44.8276 49.4281 44.7028 49.9537 44.4802C50.48 44.2557 50.9672 43.9297 51.3618 43.4889C51.7253 43.0747 52.0033 42.592 52.2 42.0718C52.3951 41.5499 52.5108 40.9931 52.5127 40.4222C52.5127 40.2139 52.4966 40.0035 52.4592 39.7952C54.4766 37.5525 55.5426 33.8169 56.0041 32.8371C56.0193 32.805 56.0353 32.7721 56.054 32.739L58.3243 35.1341C58.595 35.4218 58.9718 35.5883 59.3682 35.5965C59.7673 35.6052 60.1492 35.4521 60.4333 35.1769C60.4333 35.1769 63.8919 32.039 65.8096 29.9459C67.7267 27.8528 54.6479 10.2387 50.9846 13.03ZM50.2409 41.3325C50.1269 41.6371 49.9593 41.9167 49.7947 42.1003V42.0985C49.6442 42.2712 49.409 42.4387 49.1355 42.5562C48.8612 42.672 48.5522 42.7353 48.2788 42.7353C48.0997 42.7353 47.9349 42.7077 47.8022 42.6631C47.7933 42.6595 47.7862 42.6569 47.7781 42.6542L44.7935 39.7737C44.3776 39.3729 43.7149 39.3854 43.3141 39.8004C42.9124 40.2163 42.924 40.879 43.3399 41.2798L45.7474 43.6036C45.7563 43.6267 45.7643 43.649 45.7759 43.6722C45.8766 43.869 45.9265 44.09 45.9265 44.309C45.9247 44.6457 45.8116 44.9717 45.572 45.2424C45.4303 45.4028 45.2655 45.5185 45.0847 45.5987C44.9057 45.6787 44.7097 45.7199 44.5147 45.7199C44.1772 45.7181 43.8503 45.604 43.5778 45.3636L43.5163 45.3084C43.5056 45.2959 43.4976 45.2816 43.486 45.2674L40.8692 42.5365C40.4701 42.118 39.8067 42.1037 39.3899 42.5026C38.9723 42.9017 38.9578 43.5661 39.3578 43.983L41.5755 46.3005C41.5809 46.3084 41.5864 46.3182 41.5907 46.3253C41.7253 46.5481 41.7948 46.8046 41.7948 47.0619C41.7948 47.3995 41.6808 47.7264 41.4403 47.998C41.2995 48.1566 41.1339 48.2723 40.953 48.3543C40.7732 48.4327 40.5782 48.4719 40.3812 48.4719C40.0454 48.4719 39.7176 48.3579 39.446 48.1184L39.4058 48.0854L38.5953 47.4352L37.2708 46.0281C36.8744 45.6085 36.2128 45.5889 35.7923 45.9853C35.3719 46.3808 35.3514 47.0452 35.7478 47.4647L37.0063 48.7998C37.1355 49.019 37.2041 49.2665 37.2041 49.5177C37.2032 49.8526 37.0892 50.1804 36.8505 50.4494C36.7071 50.6124 36.57 50.7067 36.4283 50.7702C36.2875 50.8316 36.1371 50.8645 35.9537 50.8654C35.7871 50.8654 35.5947 50.836 35.3818 50.7682C35.1672 50.7005 34.9365 50.5955 34.6961 50.4547L34.6897 50.4493L34.3218 50.2355C35.3452 49.2699 35.4245 47.6605 34.4848 46.5998C33.5389 45.5345 31.917 45.4258 30.8348 46.3433L31.0307 46.1669C32.1112 45.2094 32.211 43.5554 31.2535 42.4741C30.2951 41.3927 28.6411 41.2931 27.5606 42.2514L26.9202 42.8294C27.5374 41.8702 27.4733 40.5787 26.6771 39.6825C25.7195 38.6013 24.0673 38.5006 22.9843 39.4599L22.1336 40.2348C22.5326 39.3299 22.3992 38.2335 21.7 37.4442C20.7432 36.362 19.0885 36.2632 18.0071 37.2207L16.2043 38.8186C15.9781 38.5344 15.751 38.2307 15.5283 37.9154C14.7909 36.8679 14.0979 35.6993 13.5491 34.6983C12.9987 33.697 12.589 32.8599 12.41 32.4777C12.3156 32.2773 12.2032 32.0938 12.0822 31.9175C11.8934 31.6423 11.6769 31.3867 11.4552 31.1452L20.3104 21.7974C21.0943 22.2739 21.9377 22.6632 22.8479 22.8502C23.4964 22.982 24.1385 23.03 24.7665 23.03C25.9627 23.0291 27.1125 22.8537 28.176 22.6899C28.4432 22.6471 28.7059 22.6079 28.9617 22.5687C28.1644 23.1191 27.3913 23.772 26.5675 24.5389C24.2241 26.7273 22.1995 29.4003 21.0781 30.6151C19.9559 31.8283 22.042 33.9338 25.3614 32.9683C28.6818 32.0046 30.1124 29.5285 30.1124 29.5285L34.2789 28.033L38.4153 28.9798L48.4141 37.9811L50.1411 39.652L50.1759 39.6806C50.2437 39.7447 50.2971 39.8194 50.3433 39.9406C50.3897 40.0618 50.4182 40.2256 50.4182 40.4217C50.4189 40.6974 50.3566 41.0279 50.2409 41.3325Z"
              fill="white"/>
    </g>
    <defs>
        <clipPath id="clip0_420_121417">
            <rect width="66" height="66" fill="white"/>
        </clipPath>
    </defs>
</svg>
