<svg width="66" height="66" viewBox="0 0 66 66" fill="none" xmlns="http://www.w3.org/2000/svg">
    <path d="M31.4573 14.9211C31.7887 14.9211 31.9546 14.7277 32.0374 14.4239C32.8937 9.81081 32.8385 9.70037 37.6448 8.78875C37.9762 8.73359 38.1696 8.54019 38.1696 8.20866C38.1696 7.87724 37.9762 7.68384 37.6448 7.62856C32.8661 6.6619 33.0042 6.55135 32.0374 1.99358C31.9546 1.68974 31.7887 1.49634 31.4573 1.49634C31.1258 1.49634 30.9601 1.68974 30.8772 1.99358C29.9104 6.55135 30.0762 6.6619 25.2698 7.62856C24.966 7.68384 24.745 7.87724 24.745 8.20866C24.745 8.54019 24.966 8.73359 25.2698 8.78875C30.0762 9.75565 30.0209 9.81081 30.8772 14.4239C30.9601 14.7277 31.1258 14.9211 31.4573 14.9211ZM18.088 33.9256C18.6128 33.9256 18.9719 33.594 19.027 33.0969C20.0215 25.7215 20.2701 25.7215 27.894 24.2576C28.3913 24.1746 28.7503 23.8432 28.7503 23.3184C28.7503 22.8212 28.3913 22.4621 27.894 22.3792C20.2701 21.3296 19.9938 21.0809 19.027 13.5675C18.9719 13.0704 18.6128 12.7113 18.088 12.7113C17.5907 12.7113 17.2316 13.0704 17.1763 13.5952C16.2648 20.998 15.878 20.9705 8.30947 22.3792C7.81224 22.4898 7.45312 22.8212 7.45312 23.3184C7.45312 23.8708 7.81224 24.1746 8.41991 24.2576C15.9333 25.473 16.2648 25.6664 17.1763 33.0416C17.2316 33.594 17.5907 33.9256 18.088 33.9256ZM36.8162 64.5039C37.5344 64.5039 38.0592 63.9791 38.1972 63.2333C40.1585 48.096 42.2854 45.8033 57.257 44.1459C58.0304 44.063 58.5553 43.4829 58.5553 42.7648C58.5553 42.0466 58.0304 41.4941 57.257 41.3837C42.2854 39.7262 40.1585 37.4336 38.1972 22.2964C38.0592 21.5506 37.5344 21.0533 36.8162 21.0533C36.0979 21.0533 35.5731 21.5506 35.4627 22.2964C33.5014 37.4336 31.3469 39.7262 16.4028 41.3837C15.6019 41.4941 15.0771 42.0466 15.0771 42.7648C15.0771 43.4829 15.6019 44.063 16.4028 44.1459C31.3192 46.1072 33.3909 48.1237 35.4627 63.2333C35.5731 63.9791 36.0979 64.5039 36.8162 64.5039Z"
          fill="white"/>
</svg>
