<svg width="39" height="38" viewBox="0 0 39 38" fill="none" xmlns="http://www.w3.org/2000/svg">
    <path fill-rule="evenodd" clip-rule="evenodd"
          d="M13.4047 0.317383H25.4414C29.1791 0.317383 32.2122 3.35052 32.2122 7.0882C32.2122 9.70748 30.7227 11.9807 28.545 13.1066C30.7227 14.2325 32.2122 16.5058 32.2122 19.125C32.2122 22.8627 29.1791 25.8958 25.4414 25.8958C23.3153 25.8958 21.4171 24.9144 20.1755 23.3801V31.162C20.1755 34.8996 17.1423 37.9328 13.4047 37.9328C9.66695 37.9328 6.63379 34.8996 6.63379 31.162C6.63379 28.5427 8.12334 26.2694 10.3011 25.1435C8.12334 24.0176 6.63379 21.7443 6.63379 19.125C6.63379 16.5058 8.12332 14.2325 10.301 13.1066C8.12333 11.9807 6.63379 9.70748 6.63379 7.0882C6.63379 3.35052 9.66695 0.317383 13.4047 0.317383ZM8.1384 7.0882C8.1384 4.1815 10.4979 1.822 13.4047 1.822H18.6705V12.3542H13.4047L13.3883 12.3542C10.4891 12.3454 8.1384 9.98943 8.1384 7.0882ZM18.6709 19.0534C18.6707 19.0773 18.6705 19.1011 18.6705 19.125C18.6705 19.1489 18.6707 19.1728 18.6709 19.1966V24.3911H13.4046C10.4979 24.3912 8.1384 22.0317 8.1384 19.125C8.1384 16.2237 10.4892 13.8676 13.3885 13.8589L13.4047 13.8589H18.6705L18.6709 19.0534ZM20.1755 19.1881V19.062C20.2093 16.1915 22.544 13.8704 25.4198 13.8589H25.4414C25.4468 13.8589 25.4522 13.8589 25.4576 13.8589C28.3569 13.8676 30.7076 16.2237 30.7076 19.125C30.7076 22.0317 28.3481 24.3912 25.4414 24.3912C22.5557 24.3912 20.2094 22.0658 20.1755 19.1881ZM21.1866 13.8589C20.8152 14.1594 20.4761 14.4985 20.1755 14.8699V13.8589H21.1866ZM25.4577 12.3542C25.4523 12.3542 25.4468 12.3542 25.4414 12.3542C25.4332 12.3542 25.4249 12.3542 25.4167 12.3543H20.1755V1.822H25.4414C28.3481 1.822 30.7076 4.1815 30.7076 7.0882C30.7076 9.98943 28.357 12.3454 25.4577 12.3542ZM13.4047 25.8958C10.4979 25.8958 8.1384 28.2553 8.1384 31.162C8.1384 34.0686 10.4979 36.4282 13.4047 36.4282C16.3114 36.4282 18.6709 34.0686 18.6709 31.162V25.8958H13.4047Z"
          fill="white"/>
</svg>
