<svg width="144" height="168" viewBox="0 0 144 168" fill="none" xmlns="http://www.w3.org/2000/svg">
    <path d="M71.9678 1.66406C77.817 1.66155 83.2883 3.44945 87.8037 6.50391L88.2246 6.79297C92.5431 9.82441 95.9698 14.0277 98.0557 18.9551C99.4912 22.3481 100.284 26.0822 100.284 29.9795C100.284 32.4188 100.017 34.7878 99.5947 37.0967L99.4043 38.083C98.875 40.7047 98.1572 43.261 97.3936 45.8018V45.8027C95.8551 50.8955 94.1328 55.9172 93.0137 61.3291V61.3301C92.2055 65.2259 91.311 69.78 91.0557 74.3164C90.8001 78.8566 91.1883 83.3316 92.9102 87.084L92.9111 87.0869C93.2284 87.7881 93.5619 88.3099 93.8672 88.6797L94.0186 88.8535C94.3603 89.227 94.6463 89.412 94.9219 89.5342C95.0623 89.5924 95.2199 89.6369 95.4072 89.667H126.061C129.505 89.667 132.742 90.7238 135.404 92.5234H135.405C137.901 94.2127 139.912 96.5496 141.202 99.3115L141.45 99.8691V99.8701C142.296 101.872 142.766 104.078 142.764 106.372V132.995C142.764 136.585 139.853 139.495 136.264 139.495H5.9375C3.3058 139.495 1.17204 137.362 1.17188 134.73V106.372C1.1719 102.929 2.22703 99.6896 4.02832 97.0293C5.82869 94.3676 8.36886 92.2561 11.373 90.9854L11.751 90.8311C13.6517 90.0797 15.7261 89.667 17.876 89.667H48.5322C48.873 89.6096 49.1163 89.5108 49.3945 89.3213C49.711 89.1037 50.1012 88.7228 50.5195 88.0469C50.7969 87.5988 51.0777 87.0287 51.3379 86.332L51.3389 86.3311C54.2038 78.698 52.5444 69.1401 50.9238 61.3301C50.0828 57.2742 48.9069 53.4306 47.7188 49.6143V49.6133C46.6101 46.0407 45.481 42.4844 44.6855 38.8184L44.5312 38.083C44.0015 35.4634 43.6543 32.7673 43.6543 29.9795L43.6592 29.4326C43.7654 23.7895 45.534 18.5165 48.4932 14.1426C51.544 9.62628 55.8591 6.04518 60.9463 3.89062C64.3369 2.45513 68.0709 1.66412 71.9678 1.66406ZM17.5967 99.2041C16.2067 99.2582 14.9468 99.6952 13.8672 100.422C12.7213 101.198 11.8039 102.3 11.2656 103.582L11.2646 103.584C10.9028 104.437 10.7012 105.369 10.7012 106.372V129.965H133.233L133.234 106.372C133.234 104.872 132.787 103.516 132.012 102.365C131.237 101.217 130.135 100.302 128.854 99.7617H128.853C128.105 99.4455 127.297 99.2529 126.434 99.208L126.06 99.1982H17.877L17.5967 99.2041ZM71.9678 11.1943C68.3061 11.1944 64.9215 12.2315 62.0381 14.0293L61.4688 14.3984C58.4676 16.4259 56.0816 19.3035 54.6582 22.6689C53.7092 24.9129 53.1855 27.3722 53.1855 29.9795C53.1856 31.9722 53.4349 34.0245 53.8721 36.1904C54.201 37.8177 54.638 39.5052 55.1436 41.2666L55.6709 43.0537L56.2314 44.8887C57.5754 49.2334 59.1411 54.0319 60.2559 59.3945C61.8786 67.2268 62.9623 75.5967 61.7559 83.6533L61.6318 84.4326C61.2272 86.8231 60.6108 89.0323 59.7012 91.0332L59.7002 91.0342C59.5693 91.321 59.4286 91.5989 59.2832 91.8701H84.6592C84.2909 91.167 83.9592 90.435 83.6719 89.6689V89.667C80.1237 80.1408 81.721 68.8624 83.6826 59.3945C84.637 54.7917 85.9265 50.6165 87.1191 46.7803H87.1201C88.3181 42.9392 89.4084 39.4471 90.0635 36.1914V36.1904C90.5031 34.0241 90.7529 31.9722 90.7529 29.9795C90.7515 26.3176 89.7165 22.9325 87.918 20.0479L87.5479 19.4775C85.5219 16.4784 82.6444 14.0897 79.2793 12.666C77.0339 11.718 74.5751 11.1943 71.9678 11.1943Z"
          fill="white" stroke="white"/>
    <path d="M19.5 154.154H124.5C128.005 154.154 130.846 156.995 130.846 160.5C130.846 164.005 128.005 166.846 124.5 166.846H19.5C15.9954 166.846 13.1543 164.005 13.1543 160.5C13.1543 156.995 15.9954 154.154 19.5 154.154Z"
          fill="white" stroke="white" stroke-width="0.308856"/>
</svg>
