<svg width="38" height="38" viewBox="0 0 38 38" fill="none" xmlns="http://www.w3.org/2000/svg">
    <path fill-rule="evenodd" clip-rule="evenodd"
          d="M19.0384 0.317383C8.64874 0.317383 0.230713 8.74152 0.230713 19.1217C0.230713 28.9888 7.84307 37.0878 17.5128 37.8649V37.9328H19.0384C29.4281 37.9328 37.8461 29.5086 37.8461 19.1285C37.8461 8.74911 29.4288 0.317383 19.0384 0.317383ZM23.1943 34.3283C22.0144 34.6501 20.7792 34.8382 19.5062 34.8753H19.0384C16.9156 34.8753 14.8903 34.4549 13.0415 33.6927C14.8316 27.2429 19.6842 22.6229 25.2386 20.5586C26.1971 25.2039 25.5013 30.182 23.1943 34.3283ZM24.3928 17.6205C18.0535 19.9038 12.5171 25.047 10.2925 32.225C6.06641 29.3985 3.28187 24.5831 3.28187 19.1217C3.28187 17.185 3.63168 15.3295 4.27163 13.6152C6.17915 14.5657 8.21883 15.238 10.3164 15.6119C12.9884 16.1017 15.726 16.0855 18.3902 15.6051C19.9067 15.3313 21.3872 14.8952 22.8068 14.3141C23.4387 15.3645 23.9701 16.4714 24.3928 17.6205ZM28.1794 19.7189C29.0955 23.9473 28.8177 28.4282 27.3557 32.5105C31.6932 29.8094 34.6216 25.059 34.7875 19.6171C32.6313 19.2261 30.3837 19.2739 28.1794 19.7189ZM34.5755 16.4938C32.1876 16.1585 29.732 16.2675 27.3334 16.7798C26.8609 15.4545 26.2646 14.1777 25.5542 12.9654C27.5249 11.8272 29.3247 10.3947 30.8717 8.72427C32.7638 10.8756 34.079 13.5465 34.5755 16.4938ZM10.8555 12.6092C9.03328 12.2848 7.26337 11.7 5.6117 10.8745C7.03222 8.56787 9.03072 6.65462 11.4056 5.33702L11.4239 5.34278L11.4246 5.34299L11.4246 5.34302L11.4247 5.34303C11.6834 5.42445 11.9304 5.50218 12.1682 5.58755C12.256 5.62107 12.3419 5.65364 12.4259 5.68548L12.4272 5.68598L12.4273 5.68601L12.4273 5.68603C12.813 5.83226 13.1574 5.96284 13.4451 6.09622L13.5272 6.13726L13.5468 6.14636C13.7285 6.23085 13.9902 6.35563 14.2262 6.46812C14.3515 6.52796 14.4697 6.58426 14.5646 6.62916L14.5681 6.6311C14.6474 6.67371 14.7141 6.70951 14.7762 6.74654C14.8268 6.77933 14.8719 6.8059 14.8961 6.82006C14.9404 6.84598 14.9859 6.87161 15.0234 6.89247C15.0554 6.91028 15.0868 6.92762 15.1104 6.94055L15.1223 6.94707L15.1474 6.96094L15.1506 6.96277C15.1855 6.98293 15.228 7.00714 15.2763 7.03476C15.3801 7.09395 15.5112 7.16877 15.6552 7.25305C15.7567 7.31253 15.8517 7.36925 15.9291 7.41727C15.9867 7.45304 16.018 7.47379 16.0299 7.48169L16.0306 7.48215C16.0355 7.48541 16.0366 7.48616 16.0347 7.48466L16.1016 7.53534L16.1759 7.57948C16.2892 7.64673 16.4008 7.72399 16.5402 7.8204L16.5402 7.82042L16.5403 7.82046L16.5409 7.82087C16.6044 7.86489 16.6739 7.91291 16.7518 7.9658L16.8047 8.00172L16.8498 8.0271C16.8497 8.02718 16.8518 8.0286 16.8563 8.03163C16.8684 8.03978 16.8978 8.05959 16.949 8.09628C17.0279 8.15271 17.123 8.22353 17.2277 8.30229L17.3518 8.39573C17.4155 8.44387 17.4802 8.49265 17.5352 8.5338C17.6078 8.58816 17.6967 8.65417 17.7769 8.70977C18.9477 9.60516 20.0178 10.6276 20.9706 11.7545C19.9569 12.1254 18.9121 12.4109 17.8484 12.603C15.5295 13.021 13.161 13.0323 10.8635 12.6107L10.8595 12.6099L10.8555 12.6092ZM19.0384 3.36799C22.655 3.36799 25.9867 4.58777 28.6458 6.63767C27.2517 8.14601 25.6191 9.43058 23.8315 10.4359C22.6025 8.87374 21.1806 7.46732 19.5953 6.25971L19.557 6.23056L19.5172 6.20405L19.5064 6.19653C19.4979 6.19055 19.4867 6.18248 19.4722 6.17197C19.4429 6.15071 19.4067 6.12387 19.3632 6.09129C19.3139 6.05439 19.2644 6.01705 19.2112 5.97694L19.2111 5.97686L19.2002 5.96863C19.1571 5.93609 19.1115 5.90166 19.0616 5.86413C18.9535 5.7829 18.835 5.69455 18.7262 5.61655C18.6501 5.56204 18.5408 5.48494 18.4291 5.41695L18.3583 5.36796L18.3579 5.36768L18.3579 5.36766C18.2127 5.26707 17.9948 5.11616 17.7966 4.99443C17.6114 4.86461 17.3611 4.71672 17.1971 4.6207C17.0384 4.52773 16.8674 4.43016 16.7613 4.36958L16.7604 4.36911L16.68 4.32313C16.6601 4.3115 16.6428 4.30188 16.6361 4.29811L16.6351 4.29759L16.5939 4.2748L16.58 4.26712C16.5563 4.25409 16.5326 4.24105 16.508 4.22733C16.4798 4.21164 16.457 4.1987 16.4403 4.18901L16.4289 4.18099L16.3884 4.15625C16.2419 4.06672 16.0892 3.98495 16.0063 3.94057L16.0045 3.93962L15.9757 3.92415L15.9402 3.90508L15.9039 3.88789C15.831 3.85352 15.7234 3.80226 15.6012 3.74401C16.7076 3.49783 17.8578 3.36799 19.0384 3.36799Z"
          fill="white"/>
</svg>
