<svg width="66" height="66" viewBox="0 0 66 66" fill="none" xmlns="http://www.w3.org/2000/svg">
    <g clip-path="url(#clip0_420_121407)">
        <path d="M38.2569 20.8485C38.5833 20.7129 38.9069 20.5693 39.2275 20.4178C39.5283 20.2762 39.8252 20.1268 40.1154 19.9635C37.3936 15.822 42.0643 12.6282 45.7517 12.1651C49.492 11.6981 54.5982 12.9016 56.4163 16.5791C58.3218 20.4335 54.257 23.2094 50.9149 23.7648C49.2963 24.0332 47.6198 23.9694 46.0211 23.6125C45.4211 23.4788 45.3671 23.4423 44.9847 23.8749C44.5617 24.3547 44.1803 24.864 43.8253 25.3951C48.6443 27.0165 56.2904 26.6625 59.1783 21.7619C61.0327 18.6154 59.2443 15.1571 56.5824 13.1758C53.8842 11.171 50.4212 10.2515 47.0887 10.2515C43.3748 10.2515 38.7691 11.4758 36.9303 15.0401C35.9973 16.8494 36.1988 18.9495 37.2342 20.6644C37.5726 21.234 37.6896 21.0826 38.2569 20.8485Z"
              fill="white"/>
        <path d="M12.2107 25.7572C15.3965 26.6431 18.8734 26.4593 21.9973 25.414C21.7013 24.9637 20.7977 23.3756 20.2452 23.531C19.5774 23.7198 18.8902 23.8505 18.2008 23.9263C16.5903 24.1042 14.9363 23.995 13.3798 23.53C11.7731 23.0354 10.1861 22.1495 9.31483 20.6589C8.34236 18.9844 8.72985 17.0521 9.90187 15.589C12.2892 12.6874 16.662 11.709 20.2499 12.2803C23.8213 12.8486 28.0552 15.9656 25.6069 19.9234C26.069 20.1741 27.8085 21.2636 28.2313 21.0295C28.5795 20.8368 28.8292 19.9578 28.955 19.6215C29.7141 17.6215 29.247 15.471 27.8773 13.8625C25.6492 11.2449 21.8666 10.3028 18.5519 10.3108C15.606 10.3108 12.5863 11.0345 10.0553 12.5655C7.51839 14.1004 5.15747 16.8428 5.76423 20.0149C6.35617 23.1123 9.38869 24.9726 12.2107 25.7572Z"
              fill="white"/>
        <path d="M47.9346 43.6076C48.8833 45.5033 51.2885 46.4158 53.2896 45.6862C56.4588 44.5299 55.1687 40.9074 52.6023 39.9684C51.2051 39.5486 49.909 39.3017 48.5925 38.5299C46.0703 37.053 43.8521 34.8858 42.2423 32.4512C41.5364 31.3833 40.737 30.0598 40.7763 28.7304C40.8147 27.4207 41.4734 26.1355 42.1607 25.0509C43.6544 22.6929 45.9935 20.4491 48.7832 19.7951C49.797 19.5848 51.1696 19.3016 51.2119 17.9634C51.2896 15.4934 47.1214 15.1532 45.6751 16.3076C45.3732 16.5475 45.2406 16.7599 45.1019 17.0912C44.8157 17.7747 44.5739 18.3243 44.0172 18.8799C41.972 20.9173 38.9396 22.1296 36.2002 22.873C33.2748 23.6655 30.6446 23.3332 27.8108 22.3165C25.4361 21.464 21.9504 20.0657 20.8059 17.6066C20.6899 17.3578 20.6722 17.0864 20.5463 16.8416C20.0427 15.9398 18.8718 15.6272 17.91 15.6272C16.5895 15.6233 14.1578 16.465 14.5689 18.2221C14.8 19.2093 15.7479 19.5634 16.6209 19.7334C18.7931 20.1583 20.627 21.4601 22.1028 23.0757C23.8285 24.9644 25.6927 27.7483 24.6593 30.3774C23.622 33.0156 21.4714 35.3352 19.2916 37.0865C17.6397 38.414 15.8412 39.3942 13.7764 39.8741C11.9031 40.3097 9.80192 42.1671 10.8501 44.2626C11.4804 45.523 13.0015 46.0187 14.3279 45.9124C15.3584 45.8299 17.4047 45.1662 17.7361 44.0039C18.097 42.7345 18.9749 41.6744 19.9269 40.7915C22.0801 38.7954 24.8137 37.3745 27.5463 36.352C30.3172 35.3145 32.9525 34.8437 35.8501 35.588C38.7469 36.3323 41.5827 37.6283 44.0419 39.3304C45.7104 40.4868 47.029 41.7984 47.9346 43.6076Z"
              fill="white"/>
        <path d="M17.9046 15.6275C17.6023 15.6263 17.9998 15.6275 17.9046 15.6275V15.6275Z" fill="white"/>
        <path d="M64.5381 39.3137C61.6029 34.4858 55.7652 31.8142 50.2283 31.8142C48.3168 31.8142 46.3905 32.1259 44.6009 32.8063C45.1142 33.4749 45.6806 34.1023 46.2804 34.6953C46.7583 35.1673 46.9589 34.9519 47.5714 34.7956C48.5467 34.5408 49.5567 34.4248 50.5636 34.4248C53.2067 34.4248 55.8722 35.2341 58.0532 36.7307C60.3689 38.3108 62.2341 40.8201 62.4092 43.6903C62.5695 46.3314 61.191 48.7582 59.0188 50.2057C54.3934 53.2882 47.5842 52.1073 43.7543 48.2744C41.8104 46.3294 40.5891 43.5546 41.1819 40.7878C41.2468 40.4838 41.3324 40.184 41.4367 39.8919C41.593 39.4523 41.4101 39.5103 41.0413 39.3029C40.532 39.0177 40.0119 38.7522 39.4839 38.5034C39.1966 38.3687 38.6146 37.9971 38.3885 38.1229C38.3274 38.1573 38.3019 38.3284 38.2547 38.3844C35.5545 44.1721 39.5045 50.293 44.5595 53.1336C49.4131 55.8496 55.8063 56.3765 60.7611 53.6086C65.9885 50.6874 67.6609 44.4523 64.5381 39.3137Z"
              fill="white"/>
        <path d="M24.7191 39.3511C24.3248 39.5703 24.5392 39.7012 24.6868 40.0954C24.8469 40.522 24.9592 40.9646 25.031 41.4148C25.4812 44.2536 24.1046 47.0314 22.0418 48.9173C18.0516 52.5652 11.2129 53.5496 6.73504 50.2074C4.53126 48.5633 3.33759 45.8772 3.80165 43.1417C4.27757 40.3363 6.27369 38.0197 8.64917 36.5752C10.9619 35.1691 13.7308 34.4955 16.43 34.6834C17.1241 34.7345 17.8144 34.8387 18.4899 35.0078C19.0729 35.1535 18.9903 35.1278 19.4112 34.8476C20.0906 34.3943 20.6726 33.5388 21.1742 32.9065C19.4791 32.3156 17.6914 32.0315 15.8969 32.0315C10.2891 32.0315 4.3718 34.7581 1.47012 39.7022C-1.73139 45.1563 0.507451 51.6058 6.13679 54.2882C11.3561 56.7758 17.8763 55.9539 22.6373 52.8152C27.42 49.6637 30.6443 43.4151 27.544 37.9754C26.5746 38.3736 25.6346 38.8417 24.7191 39.3511Z"
              fill="white"/>
    </g>
    <defs>
        <clipPath id="clip0_420_121407">
            <rect width="66" height="66" fill="white"/>
        </clipPath>
    </defs>
</svg>
