<svg width="66" height="66" viewBox="0 0 66 66" fill="none" xmlns="http://www.w3.org/2000/svg">
    <g clip-path="url(#clip0_454_30849)">
        <path d="M50.9883 13.03L44.7882 18.6396C44.4915 18.9067 44.317 19.2835 44.3027 19.6817C44.2876 20.0628 44.4212 20.4352 44.6741 20.7203C44.341 20.8556 44.0061 20.9608 43.6738 21.0276C40.3916 21.6948 36.8619 20.1593 34.1497 20.5698C33.9734 20.5974 33.8033 20.6295 33.6359 20.658C33.17 20.5386 32.6856 20.4389 32.1708 20.3605C31.7994 20.3044 31.4252 20.2812 31.0529 20.2812C29.9841 20.2839 28.918 20.4603 27.8589 20.6223C26.8016 20.7861 25.7559 20.9393 24.77 20.9393C24.2516 20.9393 23.751 20.8983 23.2701 20.7986C22.7554 20.6971 22.204 20.469 21.6446 20.1528C21.6891 20.0023 21.7105 19.8419 21.7052 19.6817C21.6892 19.2836 21.5129 18.9068 21.2179 18.6396L15.018 13.03C11.3555 10.2387 -1.72507 27.8527 0.195237 29.9458C2.11206 32.0389 5.5706 35.1768 5.5706 35.1768C5.8547 35.452 6.23678 35.6051 6.63407 35.5963C7.03045 35.5883 7.40711 35.4218 7.67975 35.134L10.0142 32.6695C10.0463 32.706 10.0792 32.7408 10.1078 32.7782C10.3081 33.0097 10.4614 33.2414 10.522 33.3705C10.7838 33.9273 11.4509 35.2846 12.3399 36.8033C12.7852 37.5621 13.2858 38.3611 13.8229 39.1235C14.0955 39.5066 14.3751 39.8832 14.6655 40.2395C13.8782 41.2139 13.8835 42.6444 14.7421 43.6125C15.7005 44.6955 17.3545 44.7944 18.4367 43.8352L18.5115 43.7684C18.0457 44.6975 18.1596 45.8553 18.8891 46.68C19.8475 47.7614 21.5006 47.8611 22.5828 46.9019L23.0076 46.5153C22.426 47.4692 22.5054 48.7305 23.2848 49.6104C24.2431 50.6899 25.8962 50.7897 26.9775 49.834L27.633 49.2407C27.0166 50.2026 27.08 51.4914 27.8754 52.3876C28.8337 53.4688 30.4878 53.5695 31.569 52.6103L32.6254 51.7018C32.7279 51.7499 32.8232 51.7934 32.9148 51.8353L33.6381 52.2575L33.6319 52.2522C33.9908 52.4677 34.3676 52.6423 34.756 52.7644C35.1453 52.8863 35.5478 52.9576 35.9575 52.9576C36.4029 52.9576 36.8579 52.8721 37.2793 52.6833C37.706 52.4964 38.0969 52.2059 38.4202 51.8389C38.8086 51.4025 39.065 50.8903 39.1969 50.3568C39.5817 50.4967 39.9851 50.5669 40.3851 50.5669C40.8688 50.5669 41.3514 50.4671 41.8004 50.2694C42.2483 50.0717 42.6661 49.775 43.0108 49.3859C43.4383 48.9049 43.7082 48.3322 43.825 47.739C44.053 47.7853 44.2854 47.8112 44.5187 47.8112C45.0006 47.8112 45.4842 47.7132 45.9332 47.5138C46.3821 47.3168 46.7981 47.0194 47.1418 46.631C47.6086 46.1038 47.8891 45.4669 47.9835 44.8149C48.0832 44.8238 48.1839 44.8274 48.2828 44.8274C48.8626 44.8274 49.4317 44.7026 49.9573 44.48C50.4836 44.2556 50.9709 43.9296 51.3654 43.4887C51.7289 43.0745 52.0069 42.5918 52.2036 42.0716C52.3987 41.5497 52.5144 40.993 52.5163 40.422C52.5163 40.2137 52.5002 40.0034 52.4628 39.795C54.4802 37.5523 55.5462 33.8168 56.0077 32.837C56.0229 32.8049 56.0389 32.772 56.0576 32.7389L58.3279 35.134C58.5986 35.4217 58.9754 35.5882 59.3718 35.5963C59.7708 35.6051 60.1528 35.452 60.4369 35.1768C60.4369 35.1768 63.8954 32.0389 65.8132 29.9458C67.7302 27.8527 54.6515 10.2387 50.9883 13.03ZM50.2445 41.3324C50.1305 41.637 49.9629 41.9166 49.7983 42.1001V42.0983C49.6478 42.2711 49.4126 42.4385 49.1391 42.5561C48.8648 42.6718 48.5558 42.7351 48.2824 42.7351C48.1033 42.7351 47.9385 42.7075 47.8058 42.6629C47.7969 42.6593 47.7899 42.6568 47.7817 42.654L44.7972 39.7735C44.3812 39.3728 43.7185 39.3853 43.3177 39.8002C42.9161 40.2162 42.9277 40.8789 43.3435 41.2797L45.7511 43.6034C45.76 43.6265 45.768 43.6488 45.7796 43.672C45.8802 43.8689 45.9301 44.0898 45.9301 44.3088C45.9283 44.6455 45.8153 44.9715 45.5756 45.2422C45.434 45.4026 45.2691 45.5183 45.0884 45.5985C44.9093 45.6786 44.7134 45.7197 44.5184 45.7197C44.1809 45.7179 43.854 45.6038 43.5815 45.3634L43.52 45.3082C43.5093 45.2957 43.5013 45.2814 43.4897 45.2672L40.8729 42.5364C40.4738 42.1178 39.8103 42.1035 39.3936 42.5025C38.9759 42.9015 38.9615 43.5659 39.3615 43.9828L41.5792 46.3003C41.5846 46.3083 41.59 46.3181 41.5944 46.3251C41.729 46.5479 41.7985 46.8044 41.7985 47.0617C41.7985 47.3993 41.6845 47.7262 41.444 47.9978C41.3032 48.1564 41.1376 48.2721 40.9567 48.3541C40.7769 48.4325 40.5818 48.4717 40.3849 48.4717C40.0491 48.4717 39.7213 48.3577 39.4497 48.1182L39.4094 48.0852L38.599 47.435L37.2745 46.0279C36.8781 45.6083 36.2165 45.5887 35.796 45.9851C35.3756 46.3806 35.3551 47.045 35.7515 47.4645L37.01 48.7996C37.1392 49.0188 37.2077 49.2663 37.2077 49.5175C37.2068 49.8524 37.0929 50.1802 36.8542 50.4492C36.7108 50.6122 36.5737 50.7065 36.432 50.7699C36.2912 50.8314 36.1408 50.8643 35.9574 50.8652C35.7908 50.8652 35.5984 50.8358 35.3855 50.768C35.1709 50.7003 34.9402 50.5953 34.6998 50.4545L34.6934 50.4491L34.3255 50.2352C35.3489 49.2697 35.4282 47.6603 34.4885 46.5996C33.5426 45.5343 31.9207 45.4256 30.8385 46.3431L31.0345 46.1667C32.1149 45.2092 32.2147 43.5552 31.2572 42.474C30.2988 41.3926 28.6448 41.2929 27.5643 42.2512L26.9239 42.8292C27.5411 41.87 27.4771 40.5785 26.6808 39.6824C25.7233 38.6011 24.0711 38.5005 22.988 39.4598L22.1374 40.2346C22.5364 39.3297 22.4029 38.2334 21.7038 37.4441C20.747 36.3619 19.0923 36.263 18.0109 37.2205L16.2081 38.8185C15.9819 38.5342 15.7548 38.2305 15.5322 37.9152C14.7947 36.8677 14.1017 35.6992 13.5529 34.6981C13.0025 33.6969 12.5929 32.8598 12.4138 32.4776C12.3194 32.2772 12.207 32.0937 12.086 31.9174C11.8973 31.6422 11.6807 31.3865 11.459 31.1451L20.3142 21.7974C21.098 22.2738 21.9415 22.6631 22.8517 22.8502C23.5002 22.9819 24.1423 23.03 24.7703 23.03C25.9664 23.0291 27.1162 22.8536 28.1797 22.6898C28.4469 22.647 28.7096 22.6078 28.9654 22.5686C28.1681 23.1191 27.3951 23.772 26.5712 24.5388C24.2279 26.7273 22.2033 29.4002 21.0819 30.615C19.9597 31.8282 22.0457 33.9337 25.3652 32.9682C28.6855 32.0045 30.1161 29.5284 30.1161 29.5284L34.2826 28.0329L38.4189 28.9797L48.4177 37.981L50.1447 39.6518L50.1795 39.6805C50.2473 39.7445 50.3007 39.8193 50.3469 39.9405C50.3934 40.0616 50.4218 40.2255 50.4218 40.4215C50.4225 40.6973 50.3602 41.0278 50.2445 41.3324Z"
              fill="#91B6FF"/>
    </g>
    <defs>
        <clipPath id="clip0_454_30849">
            <rect width="66" height="66" fill="white"/>
        </clipPath>
    </defs>
</svg>
