<svg width="38" height="38" viewBox="0 0 38 38" fill="none" xmlns="http://www.w3.org/2000/svg">
    <g clip-path="url(#clip0_2_43952)">
        <path d="M34.831 0.317383H2.77707C1.2416 0.317383 0 1.5296 0 3.02834V35.2145C0 36.7132 1.2416 37.9328 2.77707 37.9328H34.831C36.3664 37.9328 37.6154 36.7132 37.6154 35.2218V3.02834C37.6154 1.5296 36.3664 0.317383 34.831 0.317383ZM11.1597 32.3713H5.57619V14.4158H11.1597V32.3713ZM8.36795 11.9693C6.57535 11.9693 5.12804 10.522 5.12804 8.73676C5.12804 6.9515 6.57535 5.50419 8.36795 5.50419C10.1532 5.50419 11.6005 6.9515 11.6005 8.73676C11.6005 10.5147 10.1532 11.9693 8.36795 11.9693ZM32.0539 32.3713H26.4777V23.6433C26.4777 21.5642 26.441 18.8826 23.5757 18.8826C20.6738 18.8826 20.233 21.1528 20.233 23.4964V32.3713H14.6641V14.4158H20.0126V16.8696H20.086C20.8281 15.459 22.65 13.9677 25.361 13.9677C31.0107 13.9677 32.0539 17.6851 32.0539 22.5193V32.3713V32.3713Z"
              fill="black"/>
    </g>
    <defs>
        <clipPath id="clip0_2_43952">
            <rect width="37.6154" height="37.6154" fill="white" transform="translate(0 0.317383)"/>
        </clipPath>
    </defs>
</svg>
